<svg width="51" height="50" viewBox="0 0 51 50" fill="none" xmlns="http://www.w3.org/2000/svg">
<ellipse cx="25.2542" cy="24.8934" rx="25.2542" ry="24.8934" fill="#DF9F71"/>
<path fill-rule="evenodd" clip-rule="evenodd" d="M15.0017 23H34.9983C34.9862 20.825 34.8897 19.6471 34.1213 18.8787C33.2426 18 31.8284 18 29 18H21C18.1716 18 16.7574 18 15.8787 18.8787C15.1103 19.6471 15.0138 20.825 15.0017 23ZM35 25H15V27C15 29.8284 15 31.2426 15.8787 32.1213C16.7574 33 18.1716 33 21 33H29C31.8284 33 33.2426 33 34.1213 32.1213C35 31.2426 35 29.8284 35 27V25ZM20 28C19.4477 28 19 28.4477 19 29C19 29.5523 19.4477 30 20 30H20.01C20.5623 30 21.01 29.5523 21.01 29C21.01 28.4477 20.5623 28 20.01 28H20Z" fill="white"/>
</svg>
