<svg width="48" height="48" viewBox="0 0 48 48" fill="none" xmlns="http://www.w3.org/2000/svg">
	<circle cx="24" cy="24" r="24" fill="#D9D9D9" fill-opacity="0.21" />
	<g clip-path="url(#clip0_2431_8688)">
		<path d="M31.711 23.7918H16.711C15.911 23.7918 15.2527 23.1334 15.2527 22.3334V19.5668C15.2527 19.0001 15.6443 18.4251 16.1693 18.2168L23.6693 15.2168C23.986 15.0918 24.436 15.0918 24.7527 15.2168L32.2527 18.2168C32.7777 18.4251 33.1694 19.0084 33.1694 19.5668V22.3334C33.1694 23.1334 32.511 23.7918 31.711 23.7918ZM24.211 16.3668C24.1777 16.3668 24.1444 16.3668 24.1277 16.3751L16.636 19.3751C16.586 19.4001 16.5027 19.5084 16.5027 19.5668V22.3334C16.5027 22.4501 16.5944 22.5418 16.711 22.5418H31.711C31.8277 22.5418 31.9194 22.4501 31.9194 22.3334V19.5668C31.9194 19.5084 31.8444 19.4001 31.786 19.3751L24.286 16.3751C24.2694 16.3668 24.2444 16.3668 24.211 16.3668Z" fill="#DF9F71" />
		<path d="M32.5444 32.9583H15.8777C15.536 32.9583 15.2527 32.675 15.2527 32.3333V29.8333C15.2527 29.0333 15.911 28.375 16.711 28.375H31.711C32.511 28.375 33.1694 29.0333 33.1694 29.8333V32.3333C33.1694 32.675 32.886 32.9583 32.5444 32.9583ZM16.5027 31.7083H31.9194V29.8333C31.9194 29.7167 31.8277 29.625 31.711 29.625H16.711C16.5944 29.625 16.5027 29.7167 16.5027 29.8333V31.7083Z" fill="#DF9F71" />
		<path d="M17.5442 29.6248C17.2025 29.6248 16.9192 29.3415 16.9192 28.9998V23.1665C16.9192 22.8248 17.2025 22.5415 17.5442 22.5415C17.8859 22.5415 18.1692 22.8248 18.1692 23.1665V28.9998C18.1692 29.3415 17.8859 29.6248 17.5442 29.6248Z" fill="#DF9F71" />
		<path d="M20.8777 29.6248C20.536 29.6248 20.2527 29.3415 20.2527 28.9998V23.1665C20.2527 22.8248 20.536 22.5415 20.8777 22.5415C21.2194 22.5415 21.5027 22.8248 21.5027 23.1665V28.9998C21.5027 29.3415 21.2194 29.6248 20.8777 29.6248Z" fill="#DF9F71" />
		<path d="M24.2109 29.6248C23.8693 29.6248 23.5859 29.3415 23.5859 28.9998V23.1665C23.5859 22.8248 23.8693 22.5415 24.2109 22.5415C24.5526 22.5415 24.8359 22.8248 24.8359 23.1665V28.9998C24.8359 29.3415 24.5526 29.6248 24.2109 29.6248Z" fill="#DF9F71" />
		<path d="M27.5442 29.6248C27.2025 29.6248 26.9192 29.3415 26.9192 28.9998V23.1665C26.9192 22.8248 27.2025 22.5415 27.5442 22.5415C27.8859 22.5415 28.1692 22.8248 28.1692 23.1665V28.9998C28.1692 29.3415 27.8859 29.6248 27.5442 29.6248Z" fill="#DF9F71" />
		<path d="M30.8777 29.6248C30.536 29.6248 30.2527 29.3415 30.2527 28.9998V23.1665C30.2527 22.8248 30.536 22.5415 30.8777 22.5415C31.2194 22.5415 31.5027 22.8248 31.5027 23.1665V28.9998C31.5027 29.3415 31.2194 29.6248 30.8777 29.6248Z" fill="#DF9F71" />
		<path d="M33.3775 32.9585H15.0442C14.7025 32.9585 14.4192 32.6752 14.4192 32.3335C14.4192 31.9918 14.7025 31.7085 15.0442 31.7085H33.3775C33.7192 31.7085 34.0025 31.9918 34.0025 32.3335C34.0025 32.6752 33.7192 32.9585 33.3775 32.9585Z" fill="#DF9F71" />
		<path d="M24.2109 21.7085C23.1776 21.7085 22.3359 20.8668 22.3359 19.8335C22.3359 18.8002 23.1776 17.9585 24.2109 17.9585C25.2443 17.9585 26.0859 18.8002 26.0859 19.8335C26.0859 20.8668 25.2443 21.7085 24.2109 21.7085ZM24.2109 19.2085C23.8693 19.2085 23.5859 19.4918 23.5859 19.8335C23.5859 20.1752 23.8693 20.4585 24.2109 20.4585C24.5526 20.4585 24.8359 20.1752 24.8359 19.8335C24.8359 19.4918 24.5526 19.2085 24.2109 19.2085Z" fill="#DF9F71" />
	</g>
	<defs>
		<clipPath id="clip0_2431_8688">
			<rect width="20" height="20" fill="white" transform="translate(14.2109 14)" />
		</clipPath>
	</defs>
</svg>
