<svg width="40" height="40" viewBox="0 0 40 40" fill="none" xmlns="http://www.w3.org/2000/svg">
<g clip-path="url(#clip0_2794_12368)">
<path d="M35.0006 19.5833H5.00065C3.40065 19.5833 2.08398 18.2666 2.08398 16.6666V11.1333C2.08398 9.99997 2.86728 8.84998 3.91728 8.43331L18.9173 2.43335C19.5506 2.18335 20.4507 2.18335 21.084 2.43335L36.084 8.43331C37.134 8.84998 37.9173 10.0166 37.9173 11.1333V16.6666C37.9173 18.2666 36.6007 19.5833 35.0006 19.5833ZM20.0007 4.73336C19.934 4.73336 19.8674 4.73327 19.834 4.74994L4.85061 10.75C4.75061 10.8 4.58398 11.0166 4.58398 11.1333V16.6666C4.58398 16.9 4.76732 17.0833 5.00065 17.0833H35.0006C35.234 17.0833 35.4173 16.9 35.4173 16.6666V11.1333C35.4173 11.0166 35.2674 10.8 35.1507 10.75L20.1507 4.74994C20.1174 4.73327 20.0673 4.73336 20.0007 4.73336Z" fill="#292D32"/>
<path d="M36.6673 37.9167H3.33398C2.65065 37.9167 2.08398 37.35 2.08398 36.6667V31.6667C2.08398 30.0667 3.40065 28.75 5.00065 28.75H35.0006C36.6007 28.75 37.9173 30.0667 37.9173 31.6667V36.6667C37.9173 37.35 37.3507 37.9167 36.6673 37.9167ZM4.58398 35.4167H35.4173V31.6667C35.4173 31.4333 35.234 31.25 35.0006 31.25H5.00065C4.76732 31.25 4.58398 31.4333 4.58398 31.6667V35.4167Z" fill="#292D32"/>
<path d="M6.66602 31.25C5.98268 31.25 5.41602 30.6834 5.41602 30V18.3334C5.41602 17.65 5.98268 17.0834 6.66602 17.0834C7.34935 17.0834 7.91602 17.65 7.91602 18.3334V30C7.91602 30.6834 7.34935 31.25 6.66602 31.25Z" fill="#292D32"/>
<path d="M13.334 31.25C12.6507 31.25 12.084 30.6834 12.084 30V18.3334C12.084 17.65 12.6507 17.0834 13.334 17.0834C14.0173 17.0834 14.584 17.65 14.584 18.3334V30C14.584 30.6834 14.0173 31.25 13.334 31.25Z" fill="#292D32"/>
<path d="M20 31.25C19.3167 31.25 18.75 30.6834 18.75 30V18.3334C18.75 17.65 19.3167 17.0834 20 17.0834C20.6833 17.0834 21.25 17.65 21.25 18.3334V30C21.25 30.6834 20.6833 31.25 20 31.25Z" fill="#292D32"/>
<path d="M26.666 31.25C25.9827 31.25 25.416 30.6834 25.416 30V18.3334C25.416 17.65 25.9827 17.0834 26.666 17.0834C27.3493 17.0834 27.916 17.65 27.916 18.3334V30C27.916 30.6834 27.3493 31.25 26.666 31.25Z" fill="#292D32"/>
<path d="M33.334 31.25C32.6507 31.25 32.084 30.6834 32.084 30V18.3334C32.084 17.65 32.6507 17.0834 33.334 17.0834C34.0173 17.0834 34.584 17.65 34.584 18.3334V30C34.584 30.6834 34.0173 31.25 33.334 31.25Z" fill="#292D32"/>
<path d="M38.3327 37.9166H1.66602C0.982682 37.9166 0.416016 37.35 0.416016 36.6666C0.416016 35.9833 0.982682 35.4166 1.66602 35.4166H38.3327C39.016 35.4166 39.5827 35.9833 39.5827 36.6666C39.5827 37.35 39.016 37.9166 38.3327 37.9166Z" fill="#292D32"/>
<path d="M20 15.4166C17.9333 15.4166 16.25 13.7333 16.25 11.6666C16.25 9.59996 17.9333 7.91663 20 7.91663C22.0667 7.91663 23.75 9.59996 23.75 11.6666C23.75 13.7333 22.0667 15.4166 20 15.4166ZM20 10.4166C19.3167 10.4166 18.75 10.9833 18.75 11.6666C18.75 12.35 19.3167 12.9166 20 12.9166C20.6833 12.9166 21.25 12.35 21.25 11.6666C21.25 10.9833 20.6833 10.4166 20 10.4166Z" fill="#292D32"/>
</g>
<defs>
<clipPath id="clip0_2794_12368">
<rect width="40" height="40" fill="white"/>
</clipPath>
</defs>
</svg>
