<svg width="40" height="40" viewBox="0 0 40 40" fill="none" xmlns="http://www.w3.org/2000/svg">
<path d="M13.334 9.58337C12.6507 9.58337 12.084 9.01671 12.084 8.33337V3.33337C12.084 2.65004 12.6507 2.08337 13.334 2.08337C14.0173 2.08337 14.584 2.65004 14.584 3.33337V8.33337C14.584 9.01671 14.0173 9.58337 13.334 9.58337Z" fill="#292D32"/>
<path d="M26.666 9.58337C25.9827 9.58337 25.416 9.01671 25.416 8.33337V3.33337C25.416 2.65004 25.9827 2.08337 26.666 2.08337C27.3493 2.08337 27.916 2.65004 27.916 3.33337V8.33337C27.916 9.01671 27.3493 9.58337 26.666 9.58337Z" fill="#292D32"/>
<path d="M14.1667 24.1666C13.95 24.1666 13.7333 24.1166 13.5333 24.0333C13.3167 23.95 13.15 23.8333 12.9833 23.6833C12.6833 23.3666 12.5 22.9499 12.5 22.4999C12.5 22.2833 12.55 22.0666 12.6333 21.8666C12.7167 21.6666 12.8333 21.4833 12.9833 21.3166C13.15 21.1666 13.3167 21.0499 13.5333 20.9666C14.1333 20.7166 14.8833 20.85 15.35 21.3166C15.65 21.6333 15.8333 22.0666 15.8333 22.4999C15.8333 22.5999 15.8167 22.7166 15.8 22.8333C15.7833 22.9333 15.75 23.0333 15.7 23.1333C15.6667 23.2333 15.6167 23.3333 15.55 23.4333C15.5 23.5166 15.4167 23.5999 15.35 23.6833C15.0333 23.9833 14.6 24.1666 14.1667 24.1666Z" fill="#292D32"/>
<path d="M20.0007 24.1667C19.784 24.1667 19.5673 24.1167 19.3673 24.0334C19.1506 23.9501 18.984 23.8334 18.8173 23.6834C18.5173 23.3667 18.334 22.95 18.334 22.5C18.334 22.2834 18.384 22.0667 18.4673 21.8667C18.5507 21.6667 18.6673 21.4834 18.8173 21.3167C18.984 21.1667 19.1506 21.05 19.3673 20.9667C19.9673 20.7 20.7173 20.85 21.184 21.3167C21.484 21.6334 21.6673 22.0667 21.6673 22.5C21.6673 22.6 21.6507 22.7167 21.634 22.8334C21.6173 22.9334 21.584 23.0334 21.534 23.1334C21.5006 23.2334 21.4507 23.3334 21.384 23.4334C21.334 23.5167 21.2507 23.6 21.184 23.6834C20.8673 23.9834 20.434 24.1667 20.0007 24.1667Z" fill="#292D32"/>
<path d="M25.8327 24.1667C25.616 24.1667 25.3993 24.1167 25.1993 24.0334C24.9827 23.9501 24.816 23.8334 24.6494 23.6834C24.5827 23.6 24.516 23.5167 24.4493 23.4334C24.3827 23.3334 24.3327 23.2334 24.2994 23.1334C24.2494 23.0334 24.216 22.9334 24.1993 22.8334C24.1827 22.7167 24.166 22.6 24.166 22.5C24.166 22.0667 24.3494 21.6334 24.6494 21.3167C24.816 21.1667 24.9827 21.05 25.1993 20.9667C25.816 20.7 26.5493 20.85 27.016 21.3167C27.316 21.6334 27.4993 22.0667 27.4993 22.5C27.4993 22.6 27.4827 22.7167 27.466 22.8334C27.4493 22.9334 27.416 23.0334 27.366 23.1334C27.3327 23.2334 27.2827 23.3334 27.216 23.4334C27.166 23.5167 27.0827 23.6 27.016 23.6834C26.6993 23.9834 26.266 24.1667 25.8327 24.1667Z" fill="#292D32"/>
<path d="M14.1667 30C13.95 30 13.7333 29.95 13.5333 29.8667C13.3333 29.7833 13.15 29.6666 12.9833 29.5166C12.6833 29.2 12.5 28.7667 12.5 28.3333C12.5 28.1167 12.55 27.9 12.6333 27.7C12.7167 27.4833 12.8333 27.3 12.9833 27.15C13.6 26.5333 14.7333 26.5333 15.35 27.15C15.65 27.4667 15.8333 27.9 15.8333 28.3333C15.8333 28.7667 15.65 29.2 15.35 29.5166C15.0333 29.8166 14.6 30 14.1667 30Z" fill="#292D32"/>
<path d="M20.0007 30C19.5673 30 19.134 29.8166 18.8173 29.5166C18.5173 29.2 18.334 28.7667 18.334 28.3333C18.334 28.1167 18.384 27.9 18.4673 27.7C18.5507 27.4833 18.6673 27.3 18.8173 27.15C19.434 26.5333 20.5673 26.5333 21.184 27.15C21.334 27.3 21.4506 27.4833 21.534 27.7C21.6173 27.9 21.6673 28.1167 21.6673 28.3333C21.6673 28.7667 21.484 29.2 21.184 29.5166C20.8673 29.8166 20.434 30 20.0007 30Z" fill="#292D32"/>
<path d="M25.8327 30.0001C25.3993 30.0001 24.966 29.8168 24.6494 29.5168C24.4994 29.3668 24.3827 29.1834 24.2994 28.9668C24.216 28.7668 24.166 28.5501 24.166 28.3334C24.166 28.1168 24.216 27.9001 24.2994 27.7001C24.3827 27.4834 24.4994 27.3001 24.6494 27.1501C25.0327 26.7668 25.616 26.5834 26.1493 26.7001C26.266 26.7167 26.366 26.7501 26.466 26.8001C26.566 26.8334 26.666 26.8835 26.766 26.9501C26.8494 27.0001 26.9327 27.0834 27.016 27.1501C27.316 27.4668 27.4993 27.9001 27.4993 28.3334C27.4993 28.7668 27.316 29.2001 27.016 29.5168C26.6993 29.8168 26.266 30.0001 25.8327 30.0001Z" fill="#292D32"/>
<path d="M34.1673 16.3999H5.83398C5.15065 16.3999 4.58398 15.8332 4.58398 15.1499C4.58398 14.4666 5.15065 13.8999 5.83398 13.8999H34.1673C34.8507 13.8999 35.4173 14.4666 35.4173 15.1499C35.4173 15.8332 34.8507 16.3999 34.1673 16.3999Z" fill="#292D32"/>
<path d="M26.6667 37.9167H13.3333C7.25 37.9167 3.75 34.4167 3.75 28.3334V14.1667C3.75 8.08337 7.25 4.58337 13.3333 4.58337H26.6667C32.75 4.58337 36.25 8.08337 36.25 14.1667V28.3334C36.25 34.4167 32.75 37.9167 26.6667 37.9167ZM13.3333 7.08337C8.56667 7.08337 6.25 9.40004 6.25 14.1667V28.3334C6.25 33.1 8.56667 35.4167 13.3333 35.4167H26.6667C31.4333 35.4167 33.75 33.1 33.75 28.3334V14.1667C33.75 9.40004 31.4333 7.08337 26.6667 7.08337H13.3333Z" fill="#292D32"/>
</svg>
