<svg width="40" height="40" viewBox="0 0 40 40" fill="none" xmlns="http://www.w3.org/2000/svg">
<g clip-path="url(#clip0_2852_8255)">
<path d="M29.084 37.9167C27.2007 37.9167 25.2173 37.4667 23.1673 36.6C21.1673 35.75 19.1507 34.5834 17.184 33.1667C15.234 31.7334 13.3507 30.1334 11.5673 28.3834C9.80065 26.6 8.20065 24.7167 6.78398 22.7834C5.35065 20.7834 4.20065 18.7834 3.38398 16.85C2.51732 14.7834 2.08398 12.7834 2.08398 10.9C2.08398 9.60004 2.31732 8.36671 2.76732 7.21671C3.23398 6.03337 3.98398 4.93337 5.00065 3.98337C6.28398 2.71671 7.75065 2.08337 9.31732 2.08337C9.96732 2.08337 10.634 2.23337 11.2007 2.50004C11.8507 2.80004 12.4007 3.25004 12.8007 3.85004L16.6673 9.30004C17.0173 9.78337 17.284 10.25 17.4673 10.7167C17.684 11.2167 17.8007 11.7167 17.8007 12.2C17.8007 12.8334 17.6173 13.45 17.2673 14.0334C17.0173 14.4834 16.634 14.9667 16.1507 15.45L15.0173 16.6334C15.034 16.6834 15.0507 16.7167 15.0673 16.75C15.2673 17.1 15.6673 17.7 16.434 18.6C17.2507 19.5334 18.0173 20.3834 18.784 21.1667C19.7673 22.1334 20.584 22.9 21.3507 23.5334C22.3007 24.3334 22.9173 24.7334 23.284 24.9167L23.2507 25L24.4673 23.8C24.984 23.2834 25.484 22.9 25.9673 22.65C26.884 22.0834 28.0507 21.9834 29.2173 22.4667C29.6507 22.65 30.1173 22.9 30.6173 23.25L36.1507 27.1834C36.7673 27.6 37.2173 28.1334 37.484 28.7667C37.734 29.4 37.8507 29.9834 37.8507 30.5667C37.8507 31.3667 37.6673 32.1667 37.3173 32.9167C36.9673 33.6667 36.534 34.3167 35.984 34.9167C35.034 35.9667 34.0007 36.7167 32.8007 37.2C31.6507 37.6667 30.4007 37.9167 29.084 37.9167ZM9.31732 4.58337C8.40065 4.58337 7.55065 4.98337 6.73398 5.78337C5.96732 6.50004 5.43398 7.28337 5.10065 8.13337C4.75065 9.00004 4.58398 9.91671 4.58398 10.9C4.58398 12.45 4.95065 14.1334 5.68398 15.8667C6.43398 17.6334 7.48398 19.4667 8.81732 21.3C10.1507 23.1334 11.6673 24.9167 13.334 26.6C15.0007 28.25 16.8007 29.7834 18.6507 31.1334C20.4507 32.45 22.3007 33.5167 24.134 34.2834C26.984 35.5 29.6507 35.7834 31.8507 34.8667C32.7007 34.5167 33.4507 33.9834 34.134 33.2167C34.5173 32.8 34.8173 32.35 35.0673 31.8167C35.2673 31.4 35.3673 30.9667 35.3673 30.5334C35.3673 30.2667 35.3173 30 35.184 29.7C35.134 29.6 35.034 29.4167 34.7173 29.2L29.184 25.2667C28.8507 25.0334 28.5507 24.8667 28.2673 24.75C27.9007 24.6 27.7507 24.45 27.184 24.8C26.8507 24.9667 26.5507 25.2167 26.2173 25.55L24.9507 26.8C24.3007 27.4334 23.3007 27.5834 22.534 27.3L22.084 27.1C21.4007 26.7334 20.6007 26.1667 19.7173 25.4167C18.9173 24.7334 18.0507 23.9334 17.0007 22.9C16.184 22.0667 15.3673 21.1834 14.5173 20.2C13.734 19.2834 13.1673 18.5 12.8173 17.85L12.6173 17.35C12.5173 16.9667 12.484 16.75 12.484 16.5167C12.484 15.9167 12.7007 15.3834 13.1173 14.9667L14.3673 13.6667C14.7007 13.3334 14.9507 13.0167 15.1173 12.7334C15.2507 12.5167 15.3007 12.3334 15.3007 12.1667C15.3007 12.0334 15.2507 11.8334 15.1673 11.6334C15.0507 11.3667 14.8673 11.0667 14.634 10.75L10.7673 5.28337C10.6007 5.05004 10.4007 4.88337 10.1507 4.76671C9.88399 4.65004 9.60065 4.58337 9.31732 4.58337ZM23.2507 25.0167L22.984 26.15L23.434 24.9834C23.3507 24.9667 23.284 24.9834 23.2507 25.0167Z" fill="#292D32"/>
</g>
<defs>
<clipPath id="clip0_2852_8255">
<rect width="40" height="40" fill="white"/>
</clipPath>
</defs>
</svg>
