<svg width="36" height="36" viewBox="0 0 36 36" fill="none" xmlns="http://www.w3.org/2000/svg">
<path d="M27.084 35.9167C25.2007 35.9167 23.2173 35.4667 21.1673 34.6C19.1673 33.75 17.1507 32.5834 15.184 31.1667C13.234 29.7334 11.3507 28.1334 9.56732 26.3834C7.80065 24.6 6.20065 22.7167 4.78398 20.7834C3.35065 18.7834 2.20065 16.7834 1.38398 14.85C0.517318 12.7834 0.0839844 10.7834 0.0839844 8.90004C0.0839844 7.60004 0.317318 6.36671 0.767318 5.21671C1.23398 4.03337 1.98398 2.93337 3.00065 1.98337C4.28398 0.716708 5.75065 0.083374 7.31732 0.083374C7.96732 0.083374 8.63398 0.233374 9.20065 0.500041C9.85065 0.800041 10.4007 1.25004 10.8007 1.85004L14.6673 7.30004C15.0173 7.78337 15.284 8.25004 15.4673 8.71671C15.684 9.21671 15.8007 9.71671 15.8007 10.2C15.8007 10.8334 15.6173 11.45 15.2673 12.0334C15.0173 12.4834 14.634 12.9667 14.1507 13.45L13.0173 14.6334C13.034 14.6834 13.0507 14.7167 13.0673 14.75C13.2673 15.1 13.6673 15.7 14.434 16.6C15.2507 17.5334 16.0173 18.3834 16.784 19.1667C17.7673 20.1334 18.584 20.9 19.3507 21.5334C20.3007 22.3334 20.9173 22.7334 21.284 22.9167L21.2507 23L22.4673 21.8C22.984 21.2834 23.484 20.9 23.9673 20.65C24.884 20.0834 26.0507 19.9834 27.2173 20.4667C27.6507 20.65 28.1173 20.9 28.6173 21.25L34.1507 25.1834C34.7673 25.6 35.2173 26.1334 35.484 26.7667C35.734 27.4 35.8507 27.9834 35.8507 28.5667C35.8507 29.3667 35.6673 30.1667 35.3173 30.9167C34.9673 31.6667 34.534 32.3167 33.984 32.9167C33.034 33.9667 32.0007 34.7167 30.8007 35.2C29.6507 35.6667 28.4007 35.9167 27.084 35.9167ZM7.31732 2.58337C6.40065 2.58337 5.55065 2.98337 4.73398 3.78337C3.96732 4.50004 3.43398 5.28337 3.10065 6.13337C2.75065 7.00004 2.58398 7.91671 2.58398 8.90004C2.58398 10.45 2.95065 12.1334 3.68398 13.8667C4.43398 15.6334 5.48398 17.4667 6.81732 19.3C8.15065 21.1334 9.66732 22.9167 11.334 24.6C13.0007 26.25 14.8007 27.7834 16.6507 29.1334C18.4507 30.45 20.3007 31.5167 22.134 32.2834C24.984 33.5 27.6507 33.7834 29.8507 32.8667C30.7007 32.5167 31.4507 31.9834 32.134 31.2167C32.5173 30.8 32.8173 30.35 33.0673 29.8167C33.2673 29.4 33.3673 28.9667 33.3673 28.5334C33.3673 28.2667 33.3173 28 33.184 27.7C33.134 27.6 33.034 27.4167 32.7173 27.2L27.184 23.2667C26.8507 23.0334 26.5507 22.8667 26.2673 22.75C25.9007 22.6 25.7507 22.45 25.184 22.8C24.8507 22.9667 24.5507 23.2167 24.2173 23.55L22.9507 24.8C22.3007 25.4334 21.3007 25.5834 20.534 25.3L20.084 25.1C19.4007 24.7334 18.6007 24.1667 17.7173 23.4167C16.9173 22.7334 16.0507 21.9334 15.0007 20.9C14.184 20.0667 13.3673 19.1834 12.5173 18.2C11.734 17.2834 11.1673 16.5 10.8173 15.85L10.6173 15.35C10.5173 14.9667 10.484 14.75 10.484 14.5167C10.484 13.9167 10.7007 13.3834 11.1173 12.9667L12.3673 11.6667C12.7007 11.3334 12.9507 11.0167 13.1173 10.7334C13.2507 10.5167 13.3007 10.3334 13.3007 10.1667C13.3007 10.0334 13.2507 9.83337 13.1673 9.63337C13.0507 9.36671 12.8673 9.06671 12.634 8.75004L8.76732 3.28337C8.60065 3.05004 8.40065 2.88337 8.15065 2.76671C7.88399 2.65004 7.60065 2.58337 7.31732 2.58337ZM21.2507 23.0167L20.984 24.15L21.434 22.9834C21.3507 22.9667 21.284 22.9834 21.2507 23.0167Z" fill="#292D32"/>
</svg>
