<svg width="29" height="29" viewBox="0 0 29 29" fill="none" xmlns="http://www.w3.org/2000/svg">
<circle cx="14.5" cy="14.5" r="14" fill="white" stroke="#D9D9D9"/>
<path d="M8.125 12.98C8.125 12.2547 8.71299 11.6667 9.43832 11.6667V11.6667C9.93577 11.6667 10.3905 11.3856 10.613 10.9407L11.1944 9.77779C11.4839 9.19897 12.0754 8.83334 12.7226 8.83334H16.2774C16.9246 8.83334 17.5161 9.19897 17.8056 9.77779L18.387 10.9407C18.6095 11.3856 19.0642 11.6667 19.5617 11.6667V11.6667C20.287 11.6667 20.875 12.2547 20.875 12.98V16.5238C20.875 17.1211 20.875 17.4197 20.8326 17.6692C20.6191 18.9261 19.6344 19.9107 18.3775 20.1243C18.128 20.1667 17.8294 20.1667 17.2321 20.1667H11.7679C11.1706 20.1667 10.872 20.1667 10.6225 20.1243C9.36558 19.9107 8.38094 18.9261 8.16739 17.6692C8.125 17.4197 8.125 17.1211 8.125 16.5238V12.98Z" stroke="#DF9F71"/>
<circle cx="14.4993" cy="15.2083" r="2.33333" stroke="#DF9F71"/>
</svg>
