<svg width="29" height="29" viewBox="0 0 29 29" fill="none" xmlns="http://www.w3.org/2000/svg">
<circle cx="14.5" cy="14.5" r="14" fill="white" stroke="#D9D9D9"/>
<path d="M8.125 12.9799C8.125 12.2546 8.71299 11.6666 9.43832 11.6666V11.6666C9.93577 11.6666 10.3905 11.3855 10.613 10.9406L11.1944 9.7777C11.4839 9.19888 12.0754 8.83325 12.7226 8.83325H16.2774C16.9246 8.83325 17.5161 9.19888 17.8056 9.7777L18.387 10.9406C18.6095 11.3855 19.0642 11.6666 19.5617 11.6666V11.6666C20.287 11.6666 20.875 12.2546 20.875 12.9799V16.5237C20.875 17.121 20.875 17.4196 20.8326 17.6691C20.6191 18.926 19.6344 19.9106 18.3775 20.1242C18.128 20.1666 17.8294 20.1666 17.2321 20.1666H11.7679C11.1706 20.1666 10.872 20.1666 10.6225 20.1242C9.36558 19.9106 8.38094 18.926 8.16739 17.6691C8.125 17.4196 8.125 17.121 8.125 16.5237V12.9799Z" stroke="#DF9F71"/>
<circle cx="14.4993" cy="15.2083" r="2.33333" stroke="#DF9F71"/>
</svg>
