<svg width="48" height="48" viewBox="0 0 48 48" fill="none" xmlns="http://www.w3.org/2000/svg">
	<circle cx="24" cy="24" r="24" fill="#D9D9D9" fill-opacity="0.21" />
	<path d="M28.3777 32.125H20.0444C16.3694 32.125 15.2527 31.0083 15.2527 27.3333V20.6667C15.2527 16.9917 16.3694 15.875 20.0444 15.875H28.3777C32.0527 15.875 33.1694 16.9917 33.1694 20.6667V27.3333C33.1694 31.0083 32.0527 32.125 28.3777 32.125ZM20.0444 17.125C17.061 17.125 16.5027 17.6917 16.5027 20.6667V27.3333C16.5027 30.3083 17.061 30.875 20.0444 30.875H28.3777C31.361 30.875 31.9194 30.3083 31.9194 27.3333V20.6667C31.9194 17.6917 31.361 17.125 28.3777 17.125H20.0444Z" fill="#DF9F71" />
	<path d="M30.0444 21.2915H25.8777C25.536 21.2915 25.2527 21.0082 25.2527 20.6665C25.2527 20.3248 25.536 20.0415 25.8777 20.0415H30.0444C30.386 20.0415 30.6694 20.3248 30.6694 20.6665C30.6694 21.0082 30.386 21.2915 30.0444 21.2915Z" fill="#DF9F71" />
	<path d="M30.0443 24.625H26.7109C26.3693 24.625 26.0859 24.3417 26.0859 24C26.0859 23.6583 26.3693 23.375 26.7109 23.375H30.0443C30.3859 23.375 30.6693 23.6583 30.6693 24C30.6693 24.3417 30.3859 24.625 30.0443 24.625Z" fill="#DF9F71" />
	<path d="M30.0444 27.9585H28.3777C28.036 27.9585 27.7527 27.6752 27.7527 27.3335C27.7527 26.9918 28.036 26.7085 28.3777 26.7085H30.0444C30.386 26.7085 30.6694 26.9918 30.6694 27.3335C30.6694 27.6752 30.386 27.9585 30.0444 27.9585Z" fill="#DF9F71" />
	<path d="M21.2942 24.0333C20.1192 24.0333 19.1609 23.0749 19.1609 21.8999C19.1609 20.7249 20.1192 19.7666 21.2942 19.7666C22.4692 19.7666 23.4276 20.7249 23.4276 21.8999C23.4276 23.0749 22.4692 24.0333 21.2942 24.0333ZM21.2942 21.0166C20.8109 21.0166 20.4109 21.4166 20.4109 21.8999C20.4109 22.3833 20.8109 22.7833 21.2942 22.7833C21.7776 22.7833 22.1776 22.3833 22.1776 21.8999C22.1776 21.4166 21.7776 21.0166 21.2942 21.0166Z" fill="#DF9F71" />
	<path d="M24.2109 28.2335C23.8942 28.2335 23.6192 27.9918 23.5859 27.6668C23.4942 26.7668 22.7692 26.0418 21.8609 25.9585C21.4775 25.9251 21.0942 25.9251 20.7109 25.9585C19.8025 26.0418 19.0775 26.7585 18.9859 27.6668C18.9525 28.0085 18.6442 28.2668 18.3025 28.2251C17.9609 28.1918 17.7109 27.8835 17.7442 27.5418C17.8942 26.0418 19.0859 24.8501 20.5942 24.7168C21.0525 24.6751 21.5192 24.6751 21.9775 24.7168C23.4775 24.8585 24.6775 26.0501 24.8275 27.5418C24.8609 27.8835 24.6109 28.1918 24.2692 28.2251C24.2525 28.2335 24.2275 28.2335 24.2109 28.2335Z" fill="#DF9F71" />
</svg>
