<svg width="48" height="48" viewBox="0 0 48 48" fill="none" xmlns="http://www.w3.org/2000/svg">
	<circle cx="24" cy="24" r="24" fill="#D9D9D9" fill-opacity="0.21" />
	<path d="M15.8777 32.9582C15.7111 32.9582 15.5527 32.8915 15.436 32.7749C15.2777 32.6165 15.2111 32.3832 15.2694 32.1665L16.3194 28.2415C15.6194 26.9415 15.2527 25.4749 15.2527 23.9915C15.2527 19.0499 19.2694 15.0332 24.2111 15.0332C29.1527 15.0332 33.1694 19.0499 33.1694 23.9915C33.1694 28.9332 29.1527 32.9499 24.2111 32.9499C22.7027 32.9499 21.2277 32.5749 19.9111 31.8582L16.0444 32.9332C15.9861 32.9499 15.9361 32.9582 15.8777 32.9582ZM19.9944 30.5665C20.1027 30.5665 20.2111 30.5999 20.3111 30.6499C21.4861 31.3416 22.8361 31.7082 24.2111 31.7082C28.4611 31.7082 31.9194 28.2499 31.9194 23.9999C31.9194 19.7499 28.4611 16.2915 24.2111 16.2915C19.9611 16.2915 16.5027 19.7499 16.5027 23.9999C16.5027 25.3582 16.861 26.6832 17.536 27.8499C17.6194 27.9915 17.6444 28.1665 17.6027 28.3249L16.7694 31.4415L19.8361 30.5915C19.8861 30.5749 19.9444 30.5665 19.9944 30.5665Z" fill="#DF9F71" />
	<path d="M26.4942 28.7999C25.9776 28.7999 25.4442 28.6832 24.8859 28.4416C24.3609 28.2166 23.8359 27.9166 23.3276 27.5416C22.8276 27.1749 22.3359 26.7582 21.8859 26.3082C21.4359 25.8499 21.0192 25.3666 20.6525 24.8666C20.2775 24.3416 19.9775 23.8249 19.7609 23.3166C19.5275 22.7666 19.4109 22.2249 19.4109 21.7082C19.4109 21.3416 19.4775 20.9916 19.6025 20.6666C19.7359 20.3249 19.9525 20.0166 20.2359 19.7499C20.7692 19.2249 21.5359 19.0333 22.1442 19.3249C22.3526 19.4166 22.5276 19.5666 22.6609 19.7666L23.6276 21.1249C23.7276 21.2582 23.8026 21.3999 23.8609 21.5416C23.9276 21.7082 23.9692 21.8749 23.9692 22.0333C23.9692 22.2499 23.9109 22.4666 23.7942 22.6583C23.7192 22.7833 23.6109 22.9333 23.4692 23.0749L23.3609 23.1916C23.4109 23.2582 23.4692 23.3416 23.5609 23.4416C23.7359 23.6416 23.9275 23.8582 24.1359 24.0666C24.3442 24.2666 24.5525 24.4666 24.7609 24.6416C24.8609 24.7249 24.9442 24.7916 25.0109 24.8332L25.1275 24.7166C25.2775 24.5666 25.4276 24.4499 25.5776 24.3749C25.8526 24.1999 26.2776 24.1583 26.6526 24.3166C26.7859 24.3666 26.9192 24.4416 27.0609 24.5416L28.4526 25.5249C28.6443 25.6582 28.7942 25.8416 28.8942 26.0499C28.9776 26.2582 29.0109 26.4416 29.0109 26.6332C29.0109 26.8832 28.9526 27.1249 28.8442 27.3582C28.7359 27.5749 28.6109 27.7666 28.4609 27.9416C28.1942 28.2333 27.8859 28.4499 27.5526 28.5916C27.2192 28.7333 26.8609 28.7999 26.4942 28.7999ZM21.5359 20.4499C21.4859 20.4499 21.3193 20.4499 21.1109 20.6582C20.9526 20.8082 20.8442 20.9666 20.7692 21.1416C20.6942 21.3166 20.6609 21.5166 20.6609 21.7166C20.6609 22.0666 20.7442 22.4416 20.9109 22.8416C21.0859 23.2582 21.3442 23.6999 21.6609 24.1416C21.9859 24.5833 22.3526 25.0249 22.7609 25.4332C23.1692 25.8332 23.6026 26.2082 24.0526 26.5416C24.4859 26.8582 24.9276 27.1082 25.3692 27.2999C26.0026 27.5749 26.5859 27.6416 27.0609 27.4416C27.2276 27.3749 27.3775 27.2583 27.5275 27.1083C27.6025 27.0249 27.6609 26.9416 27.7109 26.8332C27.7359 26.7749 27.7526 26.7082 27.7526 26.6499C27.7526 26.6332 27.7525 26.6083 27.7275 26.5583L26.3359 25.5916C26.2776 25.5499 26.2192 25.5166 26.1692 25.4999C26.1359 25.5166 26.0859 25.5416 25.9942 25.6332L25.6776 25.9499C25.4359 26.1916 25.0526 26.2582 24.7442 26.1499L24.5942 26.0832C24.4026 25.9832 24.1859 25.8333 23.9442 25.6249C23.7109 25.4249 23.4859 25.2166 23.2443 24.9832C23.0109 24.7416 22.8026 24.5166 22.6026 24.2832C22.3859 24.0249 22.2359 23.8166 22.1359 23.6416L22.0443 23.4249C22.0193 23.3416 22.0109 23.2499 22.0109 23.1666C22.0109 22.9332 22.0943 22.7249 22.2526 22.5582L22.5693 22.2333C22.6609 22.1416 22.6942 22.0916 22.7109 22.0583C22.6859 21.9999 22.6526 21.9499 22.6109 21.8916L21.6359 20.5166L21.5359 20.4499Z" fill="#DF9F71" />
</svg>
