<svg width="20" height="20" viewBox="0 0 20 20" fill="none" xmlns="http://www.w3.org/2000/svg">
<path d="M17.4582 5.61661C17.4582 2.80828 16.7582 2.10828 13.9498 2.10828H5.17484C2.3665 2.10828 1.6665 2.80828 1.6665 5.61661V10.6166C1.6665 13.4249 2.3665 14.1249 5.17484 14.1249H8.33317V17.8916H5.6165M1.6665 10.7916H8.33317" stroke="black" stroke-opacity="0.7" stroke-linecap="round" stroke-linejoin="round"/>
<path d="M18.3336 10.6666V15.425C18.3336 17.4 17.8419 17.8916 15.8669 17.8916H12.9086C10.9336 17.8916 10.4419 17.4 10.4419 15.425V10.6666C10.4419 8.69162 10.9336 8.19995 12.9086 8.19995H15.8669C17.8419 8.19995 18.3336 8.69162 18.3336 10.6666Z" stroke="black" stroke-opacity="0.7" stroke-linecap="round" stroke-linejoin="round"/>
<path d="M14.3701 15.2083H14.3785" stroke="black" stroke-opacity="0.7" stroke-linecap="round" stroke-linejoin="round"/>
</svg>
