<svg width="91" height="91" viewBox="0 0 91 91" fill="none" xmlns="http://www.w3.org/2000/svg">
<g clip-path="url(#clip0_3012_8429)">
<path d="M67.5296 16.9484C67.2263 16.9484 66.9229 16.8726 66.6575 16.7209C59.3775 12.9672 53.0833 11.3747 45.5379 11.3747C38.0304 11.3747 30.9021 13.1568 24.4183 16.7209C23.5083 17.2138 22.3708 16.8726 21.84 15.9626C21.3471 15.0526 21.6883 13.8772 22.5983 13.3843C29.6508 9.55467 37.3858 7.58301 45.5379 7.58301C53.6142 7.58301 60.6667 9.36509 68.4017 13.3463C69.3496 13.8393 69.6908 14.9768 69.1979 15.8868C68.8567 16.5693 68.2121 16.9484 67.5296 16.9484ZM13.2708 36.8547C12.8917 36.8547 12.5125 36.7409 12.1713 36.5134C11.2992 35.9068 11.1096 34.7313 11.7163 33.8593C15.47 28.5509 20.2475 24.3801 25.935 21.4605C37.8408 15.318 53.0833 15.2801 65.0271 21.4226C70.7146 24.3422 75.4921 28.4751 79.2458 33.7455C79.8525 34.5797 79.6629 35.793 78.7908 36.3997C77.9188 37.0063 76.7433 36.8168 76.1367 35.9447C72.7242 31.1672 68.4017 27.4134 63.2829 24.7972C52.4008 19.2234 38.4854 19.2234 27.6413 24.8351C22.4846 27.4893 18.1621 31.2809 14.7496 36.0584C14.4463 36.5893 13.8775 36.8547 13.2708 36.8547ZM36.9688 82.6201C36.4758 82.6201 35.9829 82.4305 35.6417 82.0513C32.3429 78.7526 30.5608 76.6293 28.0204 72.0413C25.4042 67.3776 24.0392 61.6901 24.0392 55.5855C24.0392 44.3243 33.67 35.1484 45.5 35.1484C57.33 35.1484 66.9608 44.3243 66.9608 55.5855C66.9608 56.6472 66.1267 57.4813 65.065 57.4813C64.0033 57.4813 63.1692 56.6472 63.1692 55.5855C63.1692 46.4097 55.2446 38.9401 45.5 38.9401C35.7554 38.9401 27.8308 46.4097 27.8308 55.5855C27.8308 61.0455 29.0442 66.0884 31.3571 70.1834C33.7838 74.5438 35.4521 76.4018 38.3717 79.3593C39.0921 80.1176 39.0921 81.293 38.3717 82.0513C37.9546 82.4305 37.4617 82.6201 36.9688 82.6201ZM64.155 75.6055C59.6429 75.6055 55.6617 74.468 52.4008 72.2309C46.7513 68.4013 43.3767 62.183 43.3767 55.5855C43.3767 54.5238 44.2108 53.6897 45.2725 53.6897C46.3342 53.6897 47.1683 54.5238 47.1683 55.5855C47.1683 60.9318 49.8983 65.9747 54.5242 69.0838C57.2163 70.9038 60.3633 71.7759 64.155 71.7759C65.065 71.7759 66.5817 71.6622 68.0983 71.3968C69.1221 71.2072 70.1079 71.8897 70.2975 72.9513C70.4871 73.9751 69.8046 74.9609 68.7429 75.1505C66.5817 75.5676 64.6858 75.6055 64.155 75.6055ZM56.5338 83.4163C56.3821 83.4163 56.1925 83.3784 56.0408 83.3405C50.0121 81.6722 46.0688 79.4351 41.9358 75.378C36.6275 70.1076 33.7079 63.093 33.7079 55.5855C33.7079 49.443 38.9404 44.438 45.3863 44.438C51.8321 44.438 57.0646 49.443 57.0646 55.5855C57.0646 59.6426 60.5908 62.9413 64.9513 62.9413C69.3117 62.9413 72.8379 59.6426 72.8379 55.5855C72.8379 41.2909 60.515 29.6884 45.3483 29.6884C34.58 29.6884 24.7217 35.6793 20.2854 44.9688C18.8067 48.0401 18.0483 51.6422 18.0483 55.5855C18.0483 58.543 18.3138 63.2068 20.5888 69.2734C20.9679 70.2593 20.475 71.3588 19.4892 71.7001C18.5033 72.0793 17.4038 71.5484 17.0625 70.6005C15.2046 65.6334 14.2946 60.7043 14.2946 55.5855C14.2946 51.0355 15.1667 46.9026 16.8729 43.3005C21.9158 32.7218 33.1013 25.8588 45.3483 25.8588C62.6004 25.8588 76.6296 39.1676 76.6296 55.5476C76.6296 61.6901 71.3971 66.6951 64.9513 66.6951C58.5054 66.6951 53.2729 61.6901 53.2729 55.5476C53.2729 51.4905 49.7467 48.1918 45.3863 48.1918C41.0258 48.1918 37.4996 51.4905 37.4996 55.5476C37.4996 62.0313 40.0021 68.098 44.59 72.648C48.1921 76.2122 51.6425 78.1838 56.9888 79.6626C58.0125 79.928 58.5813 80.9897 58.3158 81.9755C58.1263 82.8476 57.33 83.4163 56.5338 83.4163Z" fill="#DF9F71"/>
</g>
<defs>
<clipPath id="clip0_3012_8429">
<rect width="91" height="91" fill="white"/>
</clipPath>
</defs>
</svg>
