<svg width="67" height="67" viewBox="0 0 67 67" fill="none" xmlns="http://www.w3.org/2000/svg">
	<path fill-rule="evenodd" clip-rule="evenodd" d="M33.5 7.375C26.8734 7.375 21.2556 11.6834 19.2901 17.6491C19.1518 18.0687 19.0699 18.3136 18.9955 18.4822C18.989 18.4972 18.9829 18.5104 18.9774 18.522L18.9628 18.5236C18.8066 18.5403 18.586 18.5417 18.1861 18.5417H16.75C11.5723 18.5417 7.375 22.739 7.375 27.9167C7.375 33.0943 11.5723 37.2917 16.75 37.2917H24.0882L26.0882 35.2917H16.75C12.6769 35.2917 9.375 31.9898 9.375 27.9167C9.375 23.8436 12.6769 20.5417 16.75 20.5417H18.1861L18.2289 20.5417H18.2289C18.5696 20.5417 18.8997 20.5418 19.1755 20.5123C19.4802 20.4797 19.8371 20.4016 20.1682 20.1621C20.513 19.9127 20.7006 19.5724 20.8254 19.2894C20.9441 19.0204 21.056 18.6805 21.1763 18.3153L21.1763 18.3153L21.1896 18.2749C22.893 13.1048 27.7622 9.375 33.5 9.375C39.2378 9.375 44.107 13.1048 45.8104 18.2749L45.8237 18.3153L45.8237 18.3154C45.944 18.6805 46.0559 19.0205 46.1746 19.2894C46.2994 19.5724 46.487 19.9127 46.8318 20.1621C47.1629 20.4016 47.5198 20.4797 47.8245 20.5123C48.1003 20.5418 48.4304 20.5417 48.7711 20.5417L48.8139 20.5417H54.625C56.2819 20.5417 57.625 21.8848 57.625 23.5417V32.2917C57.625 33.9485 56.2819 35.2917 54.625 35.2917H40.9118L42.9118 37.2917H54.625C57.3864 37.2917 59.625 35.0531 59.625 32.2917V23.5417C59.625 20.7802 57.3864 18.5417 54.625 18.5417H48.8139C48.414 18.5417 48.1934 18.5403 48.0373 18.5236L48.0226 18.522C48.0198 18.516 48.0168 18.5096 48.0137 18.5027C48.0107 18.4963 48.0076 18.4894 48.0045 18.4822C47.9301 18.3136 47.8482 18.0687 47.7099 17.6491C45.7444 11.6834 40.1266 7.375 33.5 7.375ZM37.2549 37.2917L35.5 35.5368V37.2917H37.2549ZM31.5 37.2917V35.5368L29.7451 37.2917H31.5Z" fill="#CCD2E3" />
	<path d="M33.5 33.5L32.7929 32.7929L33.5 32.0858L34.2071 32.7929L33.5 33.5ZM34.5 58.625C34.5 59.1773 34.0523 59.625 33.5 59.625C32.9478 59.625 32.5 59.1773 32.5 58.625L34.5 58.625ZM21.6263 43.9596L32.7929 32.7929L34.2071 34.2071L23.0405 45.3738L21.6263 43.9596ZM34.2071 32.7929L45.3738 43.9596L43.9596 45.3738L32.7929 34.2071L34.2071 32.7929ZM34.5 33.5L34.5 58.625L32.5 58.625L32.5 33.5L34.5 33.5Z" fill="#CCD2E3" />
</svg>
