<svg width="50" height="49" viewBox="0 0 50 49" fill="none" xmlns="http://www.w3.org/2000/svg">
<ellipse cx="25" cy="24.5" rx="25" ry="24.5" fill="#DF9F71"/>
<path fill-rule="evenodd" clip-rule="evenodd" d="M15.0017 22H34.9983C34.9862 19.825 34.8897 18.6471 34.1213 17.8787C33.2426 17 31.8284 17 29 17H21C18.1716 17 16.7574 17 15.8787 17.8787C15.1103 18.6471 15.0138 19.825 15.0017 22ZM35 24H15V26C15 28.8284 15 30.2426 15.8787 31.1213C16.7574 32 18.1716 32 21 32H29C31.8284 32 33.2426 32 34.1213 31.1213C35 30.2426 35 28.8284 35 26V24ZM20 27C19.4477 27 19 27.4477 19 28C19 28.5523 19.4477 29 20 29H20.01C20.5623 29 21.01 28.5523 21.01 28C21.01 27.4477 20.5623 27 20.01 27H20Z" fill="white"/>
<rect x="6" y="37.2363" width="46" height="1.61462" transform="rotate(-37.8669 6 37.2363)" fill="white"/>
</svg>
