<svg width="20" height="20" viewBox="0 0 20 20" fill="none" xmlns="http://www.w3.org/2000/svg">
	<path d="M17.4584 5.61673C17.4584 2.8084 16.7584 2.1084 13.9501 2.1084H5.17508C2.36675 2.1084 1.66675 2.8084 1.66675 5.61673V10.6167C1.66675 13.4251 2.36675 14.1251 5.17508 14.1251H8.33341V17.8917H5.61675M1.66675 10.7917H8.33341" stroke="black" stroke-opacity="0.7" stroke-linecap="round" stroke-linejoin="round" />
	<path d="M18.3333 10.6669V15.4252C18.3333 17.4002 17.8417 17.8919 15.8667 17.8919H12.9083C10.9333 17.8919 10.4417 17.4002 10.4417 15.4252V10.6669C10.4417 8.69186 10.9333 8.2002 12.9083 8.2002H15.8667C17.8417 8.2002 18.3333 8.69186 18.3333 10.6669Z" stroke="black" stroke-opacity="0.7" stroke-linecap="round" stroke-linejoin="round" />
	<path d="M14.3701 15.2085H14.3785" stroke="black" stroke-opacity="0.7" stroke-linecap="round" stroke-linejoin="round" />
</svg>
