<svg width="40" height="40" viewBox="0 0 40 40" fill="none" xmlns="http://www.w3.org/2000/svg">
<path d="M14.9815 35.8333C12.2148 35.8333 9.43151 34.7833 7.31484 32.6667C3.09818 28.4333 3.09818 21.5667 7.31484 17.35C7.79818 16.8667 8.59818 16.8667 9.08151 17.35C9.56484 17.8333 9.56484 18.6333 9.08151 19.1167C5.83151 22.3667 5.83151 27.65 9.08151 30.9C12.3315 34.15 17.6148 34.15 20.8648 30.9C22.4315 29.3333 23.2982 27.2333 23.2982 25C23.2982 22.7833 22.4315 20.6833 20.8648 19.1C20.3815 18.6167 20.3815 17.8167 20.8648 17.3333C21.3482 16.85 22.1482 16.85 22.6315 17.3333C24.6815 19.3833 25.7982 22.1 25.7982 25C25.7982 27.9 24.6648 30.6167 22.6315 32.6667C20.5315 34.7833 17.7648 35.8333 14.9815 35.8333Z" fill="#292D32"/>
<path d="M31.7835 23.6003C31.4668 23.6003 31.1501 23.4836 30.9001 23.2336C30.4168 22.7503 30.4168 21.9503 30.9001 21.467C34.3168 18.0503 34.3168 12.5003 30.9001 9.10031C27.4835 5.68364 21.9335 5.68364 18.5335 9.10031C16.8835 10.7503 15.9668 12.9503 15.9668 15.2836C15.9668 17.617 16.8835 19.817 18.5335 21.467C19.0168 21.9503 19.0168 22.7503 18.5335 23.2336C18.0501 23.717 17.2501 23.717 16.7668 23.2336C14.6501 21.117 13.4668 18.2836 13.4668 15.2836C13.4668 12.2836 14.6335 9.45031 16.7668 7.33364C21.1501 2.95031 28.2835 2.95031 32.6835 7.33364C37.0668 11.717 37.0668 18.867 32.6835 23.2503C32.4335 23.4836 32.1001 23.6003 31.7835 23.6003Z" fill="#292D32"/>
</svg>
