<svg width="26" height="22" viewBox="0 0 26 22" fill="none" xmlns="http://www.w3.org/2000/svg">
<path d="M19.25 0.750488H6.75C3 0.750488 0.5 2.62549 0.5 7.00049V15.7505C0.5 20.1255 3 22.0005 6.75 22.0005H19.25C23 22.0005 25.5 20.1255 25.5 15.7505V7.00049C25.5 2.62549 23 0.750488 19.25 0.750488ZM19.8375 8.36299L15.925 11.488C15.1 12.1505 14.05 12.4755 13 12.4755C11.95 12.4755 10.8875 12.1505 10.075 11.488L6.1625 8.36299C5.7625 8.03799 5.7 7.43799 6.0125 7.03799C6.3375 6.63799 6.925 6.56299 7.325 6.88799L11.2375 10.013C12.1875 10.7755 13.8 10.7755 14.75 10.013L18.6625 6.88799C19.0625 6.56299 19.6625 6.62549 19.975 7.03799C20.3 7.43799 20.2375 8.03799 19.8375 8.36299Z" fill="#292D32"/>
</svg>
