<svg width="20" height="20" viewBox="0 0 20 20" fill="none" xmlns="http://www.w3.org/2000/svg">
	<path d="M15.3917 14.0248L15.7167 16.6582C15.8 17.3498 15.0584 17.8332 14.4667 17.4748L10.975 15.3998C10.5917 15.3998 10.2167 15.3748 9.85003 15.3248C10.4817 14.5926 10.8305 13.6585 10.8334 12.6915C10.8334 10.3248 8.78337 8.40817 6.25003 8.40817C5.28337 8.40817 4.3917 8.68317 3.65003 9.1665C3.62503 8.95817 3.6167 8.74984 3.6167 8.53317C3.6167 4.7415 6.90837 1.6665 10.975 1.6665C15.0417 1.6665 18.3334 4.7415 18.3334 8.53317C18.3334 10.7832 17.175 12.7748 15.3917 14.0248Z" stroke="black" stroke-opacity="0.7" stroke-linecap="round" stroke-linejoin="round" />
	<path d="M10.8334 12.6915C10.8334 13.6832 10.4667 14.5999 9.85008 15.3249C9.02508 16.3249 7.71675 16.9665 6.25008 16.9665L4.07508 18.2582C3.70841 18.4832 3.24175 18.1749 3.29175 17.7499L3.50008 16.1082C2.38341 15.3332 1.66675 14.0915 1.66675 12.6915C1.66675 11.2249 2.45008 9.9332 3.65008 9.16654C4.39175 8.6832 5.28341 8.4082 6.25008 8.4082C8.78342 8.4082 10.8334 10.3249 10.8334 12.6915Z" stroke="black" stroke-opacity="0.7" stroke-linecap="round" stroke-linejoin="round" />
</svg>
