<svg width="40" height="40" viewBox="0 0 40 40" fill="none" xmlns="http://www.w3.org/2000/svg">
<path d="M25.8327 18.75H14.166C13.4827 18.75 12.916 18.1833 12.916 17.5C12.916 16.8167 13.4827 16.25 14.166 16.25H25.8327C26.516 16.25 27.0827 16.8167 27.0827 17.5C27.0827 18.1833 26.516 18.75 25.8327 18.75Z" fill="#292D32"/>
<path d="M26.6673 37.1999C26.1007 37.1999 25.534 37.0332 25.0506 36.7166L17.9506 31.9832H11.6673C5.93398 31.9832 2.08398 28.1332 2.08398 22.3999V12.3999C2.08398 6.66653 5.93398 2.81653 11.6673 2.81653H28.334C34.0673 2.81653 37.9173 6.66653 37.9173 12.3999V22.3999C37.9173 27.6999 34.6173 31.3999 29.584 31.9166V34.2832C29.584 35.3665 29.0006 36.3498 28.0506 36.8498C27.6173 37.0832 27.134 37.1999 26.6673 37.1999ZM11.6673 5.29985C7.36732 5.29985 4.58398 8.08318 4.58398 12.3832V22.3832C4.58398 26.6832 7.36732 29.4665 11.6673 29.4665H18.334C18.584 29.4665 18.8173 29.5332 19.034 29.6832L26.4506 34.6166C26.634 34.7332 26.8007 34.6832 26.884 34.6332C26.9673 34.5832 27.1007 34.4832 27.1007 34.2665V30.7165C27.1007 30.0332 27.6673 29.4665 28.3507 29.4665C32.6507 29.4665 35.434 26.6832 35.434 22.3832V12.3832C35.434 8.08318 32.6507 5.29985 28.3507 5.29985H11.6673Z" fill="#292D32"/>
</svg>
