<svg width="25" height="26" viewBox="0 0 25 26" fill="none" xmlns="http://www.w3.org/2000/svg">
<path d="M11.5111 15.8802L9.58398 17.8073C9.17773 18.2135 8.5319 18.2135 8.11523 17.8177C8.00065 17.7031 7.88607 17.599 7.77148 17.4844C6.69857 16.401 5.72982 15.2656 4.86523 14.0781C4.01107 12.8906 3.32357 11.7031 2.82357 10.526C2.33398 9.33854 2.08398 8.20313 2.08398 7.11979C2.08398 6.41146 2.20898 5.73438 2.45898 5.10938C2.70898 4.47396 3.10482 3.89063 3.6569 3.36979C4.32357 2.71354 5.05273 2.39062 5.82357 2.39062C6.11523 2.39062 6.4069 2.45313 6.66732 2.57813C6.93815 2.70313 7.17773 2.89063 7.36523 3.16146L9.7819 6.56771C9.9694 6.82813 10.1048 7.06771 10.1986 7.29688C10.2923 7.51563 10.3444 7.73438 10.3444 7.93229C10.3444 8.18229 10.2715 8.43229 10.1257 8.67188C9.99023 8.91146 9.79232 9.16146 9.54232 9.41146L8.75065 10.2344C8.63607 10.349 8.58398 10.4844 8.58398 10.651C8.58398 10.7344 8.5944 10.8073 8.61523 10.8906C8.64648 10.974 8.67773 11.0365 8.69857 11.099C8.88607 11.4427 9.20898 11.8906 9.66732 12.4323C10.1361 12.974 10.6361 13.526 11.1777 14.0781C11.2819 14.1823 11.3965 14.2865 11.5007 14.3906C11.9173 14.7969 11.9277 15.4635 11.5111 15.8802Z" fill="#292D32"/>
<path d="M22.8854 19.4009C22.8854 19.6925 22.8333 19.9946 22.7292 20.2863C22.6979 20.3696 22.6667 20.453 22.625 20.5363C22.4479 20.9113 22.2188 21.2655 21.9167 21.5988C21.4063 22.1613 20.8438 22.5675 20.2083 22.828C20.1979 22.828 20.1875 22.8384 20.1771 22.8384C19.5625 23.0884 18.8958 23.2238 18.1771 23.2238C17.1146 23.2238 15.9792 22.9738 14.7812 22.4634C13.5833 21.953 12.3854 21.2655 11.1979 20.4009C10.7917 20.0988 10.3854 19.7967 10 19.4738L13.4062 16.0675C13.6979 16.2863 13.9583 16.453 14.1771 16.5675C14.2292 16.5884 14.2917 16.6196 14.3646 16.6509C14.4479 16.6821 14.5312 16.6925 14.625 16.6925C14.8021 16.6925 14.9375 16.63 15.0521 16.5155L15.8438 15.7342C16.1042 15.4738 16.3542 15.2759 16.5938 15.1509C16.8333 15.005 17.0729 14.9321 17.3333 14.9321C17.5312 14.9321 17.7396 14.9738 17.9688 15.0675C18.1979 15.1613 18.4375 15.2967 18.6979 15.4738L22.1458 17.9217C22.4167 18.1092 22.6042 18.328 22.7188 18.5884C22.8229 18.8488 22.8854 19.1092 22.8854 19.4009Z" fill="#292D32"/>
</svg>
