<svg width="20" height="20" viewBox="0 0 20 20" fill="none" xmlns="http://www.w3.org/2000/svg">
<path d="M11.6665 6.66667H15.8332M12.4998 10H15.8332M14.1665 13.3333H15.8332M14.1665 17.5H5.83317C2.49984 17.5 1.6665 16.6667 1.6665 13.3333V6.66667C1.6665 3.33333 2.49984 2.5 5.83317 2.5H14.1665C17.4998 2.5 18.3332 3.33333 18.3332 6.66667V13.3333C18.3332 16.6667 17.4998 17.5 14.1665 17.5Z" stroke="#DF9F71" stroke-linecap="round" stroke-linejoin="round"/>
<path d="M9.99984 13.6084C9.94375 13.0234 9.68473 12.4765 9.26768 12.0625C8.85064 11.6485 8.30186 11.3935 7.7165 11.3417C7.29531 11.3001 6.87103 11.3001 6.44984 11.3417C5.86505 11.3951 5.31715 11.6506 4.90041 12.0643C4.48367 12.478 4.22415 13.024 4.1665 13.6084M7.08317 9.40839C7.48321 9.40839 7.86686 9.24948 8.14972 8.96661C8.43259 8.68374 8.5915 8.30009 8.5915 7.90006C8.5915 7.50002 8.43259 7.11637 8.14972 6.8335C7.86686 6.55064 7.48321 6.39172 7.08317 6.39172C6.68314 6.39172 6.29949 6.55064 6.01662 6.8335C5.73375 7.11637 5.57484 7.50002 5.57484 7.90006C5.57484 8.30009 5.73375 8.68374 6.01662 8.96661C6.29949 9.24948 6.68314 9.40839 7.08317 9.40839Z" stroke="#DF9F71" stroke-linecap="round" stroke-linejoin="round"/>
</svg>
