<svg width="40" height="40" viewBox="0 0 40 40" fill="none" xmlns="http://www.w3.org/2000/svg">
<path d="M28.332 35.4173H11.6654C5.58203 35.4173 2.08203 31.9173 2.08203 25.834V14.1673C2.08203 8.08398 5.58203 4.58398 11.6654 4.58398H28.332C34.4154 4.58398 37.9154 8.08398 37.9154 14.1673V25.834C37.9154 31.9173 34.4154 35.4173 28.332 35.4173ZM11.6654 7.08398C6.8987 7.08398 4.58203 9.40065 4.58203 14.1673V25.834C4.58203 30.6007 6.8987 32.9173 11.6654 32.9173H28.332C33.0987 32.9173 35.4154 30.6007 35.4154 25.834V14.1673C35.4154 9.40065 33.0987 7.08398 28.332 7.08398H11.6654Z" fill="#292D32"/>
<path d="M19.998 21.4499C18.598 21.4499 17.1813 21.0166 16.098 20.1333L10.8813 15.9666C10.348 15.5333 10.248 14.7499 10.6813 14.2166C11.1147 13.6833 11.898 13.5833 12.4313 14.0166L17.648 18.1833C18.9147 19.2 21.0647 19.2 22.3313 18.1833L27.548 14.0166C28.0813 13.5833 28.8813 13.6666 29.298 14.2166C29.7313 14.7499 29.648 15.55 29.098 15.9666L23.8813 20.1333C22.8147 21.0166 21.398 21.4499 19.998 21.4499Z" fill="#292D32"/>
</svg>
