<svg width="40" height="40" viewBox="0 0 40 40" fill="none" xmlns="http://www.w3.org/2000/svg">
<path d="M36.6667 10.5166H20C19.3167 10.5166 18.75 9.94993 18.75 9.2666C18.75 8.58327 19.3167 8.0166 20 8.0166H36.6667C37.35 8.0166 37.9167 8.58327 37.9167 9.2666C37.9167 9.9666 37.35 10.5166 36.6667 10.5166Z" fill="#292D32"/>
<path d="M32.9656 18.75H23.7156C20.0656 18.75 18.7656 17.4667 18.7656 13.8334V7.00004C18.7656 3.36671 20.0656 2.08337 23.7156 2.08337H32.9656C36.6156 2.08337 37.9156 3.36671 37.9156 7.00004V13.85C37.9156 17.4667 36.6156 18.75 32.9656 18.75ZM23.6989 4.58337C21.4323 4.58337 21.2489 4.76671 21.2489 7.00004V13.85C21.2489 16.0834 21.4323 16.2667 23.6989 16.2667H32.9489C35.2156 16.2667 35.3989 16.0834 35.3989 13.85V7.00004C35.3989 4.76671 35.2156 4.58337 32.9489 4.58337H23.6989Z" fill="#292D32"/>
<path d="M20.0007 29.6833H3.33398C2.65065 29.6833 2.08398 29.1167 2.08398 28.4333C2.08398 27.75 2.65065 27.1833 3.33398 27.1833H20.0007C20.684 27.1833 21.2507 27.75 21.2507 28.4333C21.2507 29.1333 20.684 29.6833 20.0007 29.6833Z" fill="#292D32"/>
<path d="M16.2996 37.9167H7.04961C3.39961 37.9167 2.09961 36.6333 2.09961 33V26.1667C2.09961 22.5333 3.39961 21.25 7.04961 21.25H16.2996C19.9496 21.25 21.2496 22.5333 21.2496 26.1667V33.0167C21.2496 36.6333 19.9496 37.9167 16.2996 37.9167ZM7.03293 23.75C4.76626 23.75 4.58293 23.9333 4.58293 26.1667V33.0167C4.58293 35.25 4.76626 35.4333 7.03293 35.4333H16.2829C18.5496 35.4333 18.7329 35.25 18.7329 33.0167V26.1667C18.7329 23.9333 18.5496 23.75 16.2829 23.75H7.03293Z" fill="#292D32"/>
<path d="M24.9997 37.9166C24.5497 37.9166 24.133 37.6666 23.9164 37.2833C23.6997 36.8833 23.6996 36.4166 23.933 36.0166L25.683 33.0999C26.033 32.5166 26.7997 32.3166 27.3997 32.6666C27.9997 33.0166 28.183 33.7833 27.833 34.3833L27.383 35.1333C31.983 34.0499 35.433 29.9166 35.433 24.9833C35.433 24.2999 35.9997 23.7333 36.683 23.7333C37.3664 23.7333 37.933 24.2999 37.933 24.9833C37.9164 32.1166 32.1163 37.9166 24.9997 37.9166Z" fill="#292D32"/>
<path d="M3.33398 16.25C2.65065 16.25 2.08398 15.6834 2.08398 15C2.08398 7.88337 7.88398 2.08337 15.0007 2.08337C15.4507 2.08337 15.8673 2.33338 16.084 2.71671C16.3006 3.11671 16.3007 3.58337 16.0673 3.98337L14.3173 6.90004C13.9673 7.48337 13.2006 7.68338 12.6006 7.33338C12.0006 6.98338 11.8173 6.21671 12.1673 5.61671L12.6173 4.8667C8.01733 5.95004 4.5673 10.0834 4.5673 15.0167C4.58397 15.6834 4.01732 16.25 3.33398 16.25Z" fill="#292D32"/>
</svg>
