<svg width="20" height="20" viewBox="0 0 20 20" fill="none" xmlns="http://www.w3.org/2000/svg">
<path d="M14.9998 2.0835V2.0835C15.263 2.0835 15.3946 2.0835 15.5051 2.09723C16.3233 2.1989 16.9678 2.84339 17.0694 3.66153C17.0832 3.77209 17.0832 3.90367 17.0832 4.16683V13.3702C17.0832 14.3783 17.0832 14.8823 16.887 15.2673C16.7144 15.606 16.439 15.8814 16.1004 16.054C15.7153 16.2502 15.2113 16.2502 14.2032 16.2502H5.79651C4.78841 16.2502 4.28436 16.2502 3.89932 16.054C3.56063 15.8814 3.28526 15.606 3.11269 15.2673C2.9165 14.8823 2.9165 14.3783 2.9165 13.3702V4.16683C2.9165 3.90367 2.9165 3.77209 2.93024 3.66153C3.03191 2.84339 3.6764 2.1989 4.49454 2.09723C4.6051 2.0835 4.73668 2.0835 4.99984 2.0835V2.0835" stroke="black" stroke-opacity="0.62"/>
<path d="M17.0832 10.4165H15.0675C14.4932 10.4165 14.2061 10.4165 13.9762 10.5473C13.9139 10.5827 13.8556 10.6247 13.8023 10.6726C13.6056 10.8493 13.5148 11.1217 13.3332 11.6665V11.6665C13.1516 12.2113 13.0608 12.4837 12.864 12.6604C12.8107 12.7083 12.7524 12.7503 12.6902 12.7857C12.4602 12.9165 12.1731 12.9165 11.5989 12.9165H8.40079C7.82655 12.9165 7.53943 12.9165 7.30951 12.7857C7.24724 12.7503 7.18895 12.7083 7.13566 12.6604C6.93889 12.4837 6.84809 12.2113 6.6665 11.6665V11.6665C6.48491 11.1217 6.39412 10.8493 6.19735 10.6726C6.14405 10.6247 6.08577 10.5827 6.02349 10.5473C5.79358 10.4165 5.50646 10.4165 4.93222 10.4165H2.9165M13.4721 11.2498H6.52762" stroke="black" stroke-opacity="0.62"/>
<path d="M17.0832 6.25H15.0675C14.4932 6.25 14.2061 6.25 13.9762 6.38077C13.9139 6.4162 13.8556 6.45821 13.8023 6.50608C13.6056 6.68284 13.5148 6.95523 13.3332 7.5V7.5C13.1516 8.04477 13.0608 8.31716 12.864 8.49392C12.8107 8.54179 12.7524 8.5838 12.6902 8.61922C12.4602 8.75 12.1731 8.75 11.5989 8.75H8.40079C7.82655 8.75 7.53943 8.75 7.30951 8.61922C7.24724 8.5838 7.18895 8.54179 7.13566 8.49392C6.93889 8.31716 6.84809 8.04477 6.6665 7.5V7.5C6.48491 6.95523 6.39412 6.68284 6.19735 6.50608C6.14405 6.45821 6.08577 6.4162 6.02349 6.38077C5.79358 6.25 5.50646 6.25 4.93222 6.25H2.9165M13.4721 7.08333H6.52762" stroke="black" stroke-opacity="0.62"/>
<path d="M15.4168 2.0835H15.0678C14.4935 2.0835 14.2064 2.0835 13.9765 2.21427C13.9142 2.24969 13.8559 2.2917 13.8027 2.33958C13.6059 2.51634 13.5151 2.78872 13.3335 3.3335V3.3335C13.1519 3.87827 13.0611 4.15065 12.8643 4.32741C12.811 4.37529 12.7528 4.4173 12.6905 4.45272C12.4606 4.5835 12.1735 4.5835 11.5992 4.5835H8.40111C7.82687 4.5835 7.53975 4.5835 7.30984 4.45272C7.24757 4.4173 7.18928 4.37529 7.13598 4.32741C6.93922 4.15065 6.84842 3.87827 6.66683 3.3335V3.3335C6.48524 2.78872 6.39444 2.51634 6.19767 2.33958C6.14438 2.2917 6.08609 2.24969 6.02382 2.21427C5.79391 2.0835 5.50679 2.0835 4.93255 2.0835H4.5835M13.4724 2.91683H6.52794" stroke="black" stroke-opacity="0.62"/>
</svg>
