<svg width="25" height="25" viewBox="0 0 25 25" fill="none"
    xmlns="http://www.w3.org/2000/svg">
    <path d="M14.173 5.1287C14.1831 4.02875 13.2914 3.12052 12.1915 3.11042C11.0915 3.10033 10.1833 3.99203 10.1732 5.09198C10.1631 6.19193 11.0548 7.10016 12.1548 7.11026C13.2547 7.12035 14.1629 6.22865 14.173 5.1287Z" fill="black" stroke="#292D32" stroke-width="1.5"/>
    <path d="M14.0441 19.1281C14.0542 18.0281 13.1625 17.1199 12.0626 17.1098C10.9626 17.0997 10.0544 17.9914 10.0443 19.0914C10.0342 20.1913 10.9259 21.0995 12.0259 21.1096C13.1258 21.1197 14.034 20.228 14.0441 19.1281Z" fill="black" stroke="#292D32" stroke-width="1.5"/>
    <path d="M14.1086 12.1285C14.1187 11.0285 13.227 10.1203 12.127 10.1102C11.0271 10.1001 10.1189 10.9918 10.1088 12.0917C10.0987 13.1917 10.9904 14.0999 12.0903 14.11C13.1903 14.1201 14.0985 13.2284 14.1086 12.1285Z" fill="black" stroke="#292D32" stroke-width="1.5"/>
</svg>
