<svg width="40" height="40" viewBox="0 0 40 40" fill="none" xmlns="http://www.w3.org/2000/svg">
<path d="M3.33259 37.9167C2.99925 37.9167 2.68254 37.7833 2.44921 37.55C2.13254 37.2333 1.99929 36.7666 2.11595 36.3333L4.21597 28.4833C2.81597 25.8833 2.08259 22.95 2.08259 19.9833C2.08259 10.1 10.1159 2.06665 19.9993 2.06665C29.8826 2.06665 37.9159 10.1 37.9159 19.9833C37.9159 29.8667 29.8826 37.9 19.9993 37.9C16.9826 37.9 14.0326 37.15 11.3993 35.7167L3.66594 37.8667C3.54927 37.9 3.44925 37.9167 3.33259 37.9167ZM11.5659 33.1333C11.7826 33.1333 11.9993 33.2 12.1993 33.3C14.5493 34.6834 17.2493 35.4167 19.9993 35.4167C28.4993 35.4167 35.4159 28.5 35.4159 20C35.4159 11.5 28.4993 4.58333 19.9993 4.58333C11.4993 4.58333 4.58259 11.5 4.58259 20C4.58259 22.7167 5.29924 25.3667 6.64924 27.7C6.8159 27.9833 6.86593 28.3333 6.7826 28.65L5.11593 34.8833L11.2493 33.1833C11.3493 33.15 11.4659 33.1333 11.5659 33.1333Z" fill="black"/>
<path d="M24.5671 29.6001C23.5337 29.6001 22.4671 29.3667 21.3504 28.8834C20.3004 28.4334 19.2504 27.8334 18.2337 27.0834C17.2337 26.3501 16.2504 25.5167 15.3504 24.6167C14.4504 23.7001 13.617 22.7334 12.8837 21.7334C12.1337 20.6834 11.5337 19.6501 11.1004 18.6334C10.6337 17.5334 10.4004 16.4501 10.4004 15.4167C10.4004 14.6834 10.5337 13.9834 10.7837 13.3334C11.0504 12.6501 11.4837 12.0334 12.0504 11.5001C13.117 10.4501 14.6504 10.0668 15.8671 10.6501C16.2838 10.8334 16.6338 11.1334 16.9004 11.5334L18.8337 14.25C19.0337 14.5167 19.1838 14.8 19.3004 15.0834C19.4338 15.4167 19.5171 15.7501 19.5171 16.0668C19.5171 16.5001 19.4004 16.9334 19.1671 17.3168C19.0171 17.5668 18.8004 17.8668 18.517 18.1501L18.3004 18.3834C18.4004 18.5167 18.517 18.6834 18.7004 18.8834C19.0504 19.2834 19.4337 19.7167 19.8504 20.1334C20.267 20.5334 20.6837 20.9334 21.1004 21.2834C21.3004 21.4501 21.4671 21.5834 21.6004 21.6667L21.8337 21.4334C22.1337 21.1334 22.4338 20.9001 22.7338 20.7501C23.2838 20.4001 24.1337 20.3167 24.8837 20.6334C25.1504 20.7334 25.417 20.8834 25.7004 21.0834L28.4838 23.05C28.8671 23.3167 29.1671 23.6834 29.3671 24.1001C29.5337 24.5167 29.6004 24.8834 29.6004 25.2667C29.6004 25.7667 29.4837 26.2501 29.2671 26.7167C29.0504 27.1501 28.8004 27.5334 28.5004 27.8834C27.967 28.4668 27.3504 28.9001 26.6838 29.1834C26.0171 29.4668 25.3004 29.6001 24.5671 29.6001ZM14.6504 12.9001C14.5504 12.9001 14.2171 12.9001 13.8005 13.3167C13.4838 13.6167 13.2671 13.9334 13.1171 14.2834C12.9671 14.6334 12.9004 15.0334 12.9004 15.4334C12.9004 16.1334 13.067 16.8834 13.4004 17.6834C13.7504 18.5167 14.2671 19.4001 14.9004 20.2834C15.5504 21.1668 16.2838 22.0501 17.1004 22.8667C17.9171 23.6667 18.7837 24.4167 19.6837 25.0834C20.5504 25.7167 21.4338 26.2167 22.3171 26.6001C23.5838 27.1501 24.7504 27.2834 25.7004 26.8834C26.0337 26.7501 26.3337 26.5168 26.6337 26.2168C26.7837 26.0501 26.9004 25.8834 27.0004 25.6667C27.0504 25.5501 27.0837 25.4167 27.0837 25.3001C27.0837 25.2667 27.0837 25.2167 27.0337 25.1167L24.2504 23.1834C24.1337 23.1001 24.017 23.0334 23.917 23C23.8504 23.0334 23.7504 23.0834 23.5671 23.2667L22.9338 23.9001C22.4504 24.3834 21.6838 24.5167 21.0671 24.3L20.7671 24.1667C20.3838 23.9667 19.9504 23.6668 19.4671 23.2501C19.0004 22.8501 18.5505 22.4334 18.0671 21.9667C17.6005 21.4834 17.1838 21.0334 16.7838 20.5667C16.3504 20.0501 16.0504 19.6334 15.8504 19.2834L15.6671 18.8501C15.6171 18.6834 15.6004 18.5001 15.6004 18.3334C15.6004 17.8667 15.7671 17.4501 16.0838 17.1167L16.7171 16.4667C16.9005 16.2834 16.9671 16.1834 17.0004 16.1168C16.9504 16.0001 16.8838 15.9001 16.8004 15.7834L14.8504 13.0334L14.6504 12.9001Z" fill="black"/>
</svg>
