<svg width="35" height="34" viewBox="0 0 35 34" fill="none" xmlns="http://www.w3.org/2000/svg">
<path d="M25.477 22.8813L25.1955 23.2323L25.515 23.5491L30.6918 28.6838C30.8513 28.8505 30.9404 29.0725 30.9404 29.3034C30.9404 29.5348 30.8509 29.7572 30.6907 29.9241C30.6079 30.007 30.5095 30.0729 30.4013 30.118C30.2921 30.1635 30.1749 30.1869 30.0565 30.1869C29.9382 30.1869 29.821 30.1635 29.7118 30.118C29.6025 30.0725 29.5034 30.0058 29.42 29.9218L29.4186 29.9203L24.2795 24.7816L23.9627 24.4648L23.6132 24.7451C21.2054 26.676 18.1493 27.6111 15.0732 27.3581C11.9971 27.1051 9.13482 25.6832 7.07497 23.3848C5.01513 21.0864 3.91424 18.0862 3.99866 15.0011C4.08309 11.916 5.34641 8.98046 7.52887 6.79814C9.71134 4.61581 12.6471 3.35255 15.7324 3.26813C18.8177 3.18371 21.8181 4.28454 24.1167 6.34426C26.4152 8.40398 27.8372 11.266 28.0902 14.3419C28.3433 17.4178 27.4081 20.4737 25.477 22.8813ZM10.383 23.9035C12.0728 25.0325 14.0594 25.6351 16.0917 25.6351C18.8169 25.6351 21.4305 24.5526 23.3575 22.6257C25.2845 20.6988 26.3671 18.0854 26.3671 15.3604C26.3671 13.3282 25.7644 11.3417 24.6354 9.65199C23.5063 7.96231 21.9015 6.64537 20.0239 5.86771C18.1463 5.09004 16.0803 4.88656 14.0871 5.28301C12.0938 5.67947 10.2629 6.65804 8.8259 8.09499C7.38886 9.53194 6.41022 11.3627 6.01374 13.3558C5.61726 15.349 5.82074 17.4149 6.59847 19.2924C7.37619 21.1698 8.69322 22.7745 10.383 23.9035Z" fill="black" stroke="#828282"/>
</svg>
