<svg width="38" height="34" viewBox="0 0 38 34" fill="none" xmlns="http://www.w3.org/2000/svg">
<path fill-rule="evenodd" clip-rule="evenodd" d="M27.6353 13.4653C27.6353 14.381 28.3686 15.1135 29.2853 15.1135C30.2019 15.1135 30.9536 14.381 30.9536 13.4653C30.9536 12.5497 30.2019 11.7988 29.2853 11.7988C28.3686 11.7988 27.6353 12.5497 27.6353 13.4653ZM24.0786 24.5264C22.7769 25.8266 20.9802 26.6323 19.0002 26.6323C17.0752 26.6323 15.2786 25.8815 13.9036 24.5264C12.5469 23.1529 11.7952 21.3582 11.7952 19.4353C11.7769 17.5308 12.5286 15.7361 13.8852 14.3626C15.2602 12.9892 17.0752 12.2383 19.0002 12.2383C20.9252 12.2383 22.7402 12.9892 24.0969 14.3443C25.4536 15.7178 26.2052 17.5308 26.2052 19.4353C26.1869 21.4315 25.3802 23.2261 24.0786 24.5264ZM19.0002 14.9853C17.8086 14.9853 16.6902 15.4431 15.8286 16.3038C14.9852 17.1462 14.5269 18.2633 14.5452 19.417V19.4353C14.5452 20.6257 15.0036 21.7428 15.8469 22.5852C16.6902 23.4276 17.8086 23.8854 19.0002 23.8854C21.4569 23.8854 23.4369 21.8893 23.4552 19.4353C23.4552 18.245 22.9969 17.1279 22.1536 16.2855C21.3102 15.4431 20.1919 14.9853 19.0002 14.9853Z" fill="#DF9F71"/>
<path opacity="0.4" d="M28.9727 6.43341L28.7893 6.03052C28.2943 4.98668 27.726 3.77802 27.3777 3.08213C26.5343 1.43396 25.086 0.518313 23.3077 0.5H14.6727C12.8943 0.518313 11.4643 1.43396 10.621 3.08213C10.2543 3.81465 9.63102 5.13319 9.11768 6.21365L9.00768 6.43341C8.95268 6.57991 8.80602 6.65316 8.65935 6.65316C4.24102 6.65316 0.666016 10.2425 0.666016 14.6376V25.5155C0.666016 29.9107 4.24102 33.5 8.65935 33.5H29.3393C33.7393 33.5 37.3327 29.9107 37.3327 25.5155V14.6376C37.3327 10.2425 33.7393 6.65316 29.3393 6.65316C29.1743 6.65316 29.046 6.5616 28.9727 6.43341Z" fill="#DF9F71"/>
</svg>
