<svg width="29" height="30" viewBox="0 0 29 30" fill="none" xmlns="http://www.w3.org/2000/svg">
<rect y="0.642853" width="29" height="29" rx="14.5" fill="#DF9F71"/>
<path d="M21.7085 10.8529C21.6155 10.7591 21.5049 10.6847 21.3831 10.634C21.2612 10.5832 21.1305 10.5571 20.9985 10.5571C20.8665 10.5571 20.7358 10.5832 20.6139 10.634C20.492 10.6847 20.3814 10.7591 20.2885 10.8529L12.8385 18.3129L9.70849 15.1729C9.61196 15.0796 9.49802 15.0063 9.37317 14.9571C9.24831 14.9079 9.11499 14.8838 8.98081 14.8861C8.84663 14.8884 8.71422 14.9171 8.59114 14.9706C8.46806 15.0241 8.35672 15.1013 8.26348 15.1979C8.17025 15.2944 8.09693 15.4083 8.04773 15.5332C7.99852 15.658 7.97439 15.7914 7.97672 15.9255C7.97904 16.0597 8.00776 16.1921 8.06126 16.3152C8.11475 16.4383 8.19196 16.5496 8.28848 16.6429L12.1285 20.4829C12.2214 20.5766 12.332 20.651 12.4539 20.7018C12.5758 20.7525 12.7065 20.7787 12.8385 20.7787C12.9705 20.7787 13.1012 20.7525 13.2231 20.7018C13.3449 20.651 13.4555 20.5766 13.5485 20.4829L21.7085 12.3229C21.81 12.2292 21.891 12.1156 21.9464 11.9891C22.0018 11.8626 22.0304 11.726 22.0304 11.5879C22.0304 11.4498 22.0018 11.3132 21.9464 11.1867C21.891 11.0602 21.81 10.9465 21.7085 10.8529Z" fill="white"/>
</svg>
