<svg width="76" height="77" viewBox="0 0 76 77" fill="none" xmlns="http://www.w3.org/2000/svg">
<rect y="0.159744" width="76" height="76" rx="38" fill="#F8ECDE"/>
<path fill-rule="evenodd" clip-rule="evenodd" d="M49.6046 49.7831C44.511 54.8773 36.9686 55.9778 30.7964 53.1234C29.8852 52.7565 29.1382 52.46 28.428 52.46C26.4498 52.4717 23.9876 54.3898 22.7079 53.1116C21.4283 51.8318 23.3478 49.3677 23.3478 47.3776C23.3478 46.6673 23.063 45.9336 22.6962 45.0206C19.8404 38.8494 20.9425 31.3045 26.0361 26.212C32.5383 19.7074 43.1024 19.7074 49.6046 26.2103C56.1186 32.725 56.1068 43.2802 49.6046 49.7831Z" stroke="#DF9F71" stroke-width="3" stroke-linecap="round" stroke-linejoin="round"/>
<path d="M44.3849 38.6883H44.3999" stroke="#DF9F71" stroke-width="3" stroke-linecap="round" stroke-linejoin="round"/>
<path d="M37.7028 38.6883H37.7178" stroke="#DF9F71" stroke-width="3" stroke-linecap="round" stroke-linejoin="round"/>
<path d="M31.0211 38.6883H31.0361" stroke="#DF9F71" stroke-width="3" stroke-linecap="round" stroke-linejoin="round"/>
</svg>
