<svg width="278" height="278" viewBox="0 0 278 278" fill="none" xmlns="http://www.w3.org/2000/svg">
<path d="M139.215 277.682C215.747 277.682 277.788 215.662 277.788 139.157C277.788 62.6514 215.747 0.631531 139.215 0.631531C62.6837 0.631531 0.642578 62.6514 0.642578 139.157C0.642578 215.662 62.6837 277.682 139.215 277.682Z" fill="#FBECDE"/>
<path d="M182.919 139.157C172.738 126.098 156.984 117.648 139.118 117.648C121.444 117.648 105.692 126.098 95.5096 139.157V85.7698H83.9834V192.544H95.5096V172.764C95.5096 148.759 115.106 129.171 139.118 129.171C163.131 129.171 182.726 148.76 182.726 172.764V192.544H194.252V172.764C194.445 160.089 190.026 148.375 182.919 139.157H194.445V85.7698H182.919V139.157H182.919Z" fill="#DF9F71"/>
</svg>
