<svg width="281" height="98" viewBox="0 0 281 98" fill="none" xmlns="http://www.w3.org/2000/svg">
<path d="M0.938807 93.6819C1.86769 96.4771 4.88667 97.9901 7.68189 97.0612C10.4771 96.1323 11.9901 93.1133 11.0612 90.3181C10.1323 87.5229 7.11333 86.0099 4.31811 86.9388C1.52289 87.8677 0.00992234 90.8867 0.938807 93.6819ZM6.31536 92.949L10.1168 91.6857L9.48607 89.7878L5.68464 91.051L6.31536 92.949ZM17.7196 89.1592L25.3225 86.6327L24.6918 84.7347L17.0889 87.2613L17.7196 89.1592ZM32.9253 84.1062L40.5282 81.5796L39.8975 79.6817L32.2946 82.2082L32.9253 84.1062ZM48.131 79.0531L55.7339 76.5266L55.1032 74.6287L47.5003 77.1552L48.131 79.0531ZM63.3367 74.0001L70.9396 71.4736L70.3089 69.5756L62.706 72.1022L63.3367 74.0001ZM78.5424 68.9471L86.1453 66.4206L85.5145 64.5226L77.9117 67.0491L78.5424 68.9471ZM93.7481 63.894L101.351 61.3675L100.72 59.4696L93.1174 61.9961L93.7481 63.894ZM108.954 58.841L116.557 56.3145L115.926 54.4165L108.323 56.9431L108.954 58.841ZM124.159 53.788L131.762 51.2615L131.132 49.3635L123.529 51.89L124.159 53.788ZM139.365 48.7349L146.968 46.2084L146.337 44.3105L138.734 46.837L139.365 48.7349ZM154.571 43.6819L162.174 41.1554L161.543 39.2574L153.94 41.784L154.571 43.6819ZM169.777 38.6289L177.379 36.1023L176.749 34.2044L169.146 36.7309L169.777 38.6289ZM184.982 33.5758L192.585 31.0493L191.954 29.1514L184.352 31.6779L184.982 33.5758ZM200.188 28.5228L207.791 25.9963L207.16 24.0983L199.557 26.6248L200.188 28.5228ZM215.394 23.4698L222.997 20.9432L222.366 19.0453L214.763 21.5718L215.394 23.4698ZM230.599 18.4167L238.202 15.8902L237.572 13.9923L229.969 16.5188L230.599 18.4167ZM245.805 13.3637L253.408 10.8372L252.777 8.93922L245.174 11.4657L245.805 13.3637ZM261.011 8.31065L268.614 5.78413L267.983 3.88618L260.38 6.4127L261.011 8.31065ZM276.217 3.25761L280.018 1.99438L279.387 0.0964356L275.586 1.35967L276.217 3.25761Z" fill="#DF9F71"/>
</svg>
