<svg width="114" height="276" viewBox="0 0 114 276" fill="none" xmlns="http://www.w3.org/2000/svg">
<path d="M110.035 275.327C112.774 274.241 114.114 271.142 113.028 268.403C111.943 265.665 108.844 264.325 106.105 265.41C103.367 266.495 102.027 269.595 103.112 272.333C104.197 275.072 107.297 276.412 110.035 275.327ZM109 270L107.514 266.25L105.655 266.987L107.141 270.737L109 270ZM104.542 258.75L101.569 251.25L99.7101 251.987L102.682 259.487L104.542 258.75ZM98.5972 243.75L95.625 236.25L93.7657 236.987L96.7379 244.487L98.5972 243.75ZM92.6528 228.75L89.6805 221.25L87.8212 221.987L90.7934 229.487L92.6528 228.75ZM86.7083 213.75L83.7361 206.25L81.8768 206.987L84.849 214.487L86.7083 213.75ZM80.7639 198.75L77.7916 191.25L75.9323 191.987L78.9045 199.487L80.7639 198.75ZM74.8194 183.75L71.8472 176.25L69.9879 176.987L72.9601 184.487L74.8194 183.75ZM68.875 168.75L65.9027 161.25L64.0434 161.987L67.0157 169.487L68.875 168.75ZM62.9305 153.75L59.9583 146.25L58.099 146.987L61.0712 154.487L62.9305 153.75ZM56.9861 138.75L54.0139 131.25L52.1545 131.987L55.1268 139.487L56.9861 138.75ZM51.0416 123.75L48.0694 116.25L46.2101 116.987L49.1823 124.487L51.0416 123.75ZM45.0972 108.75L42.125 101.25L40.2656 101.987L43.2379 109.487L45.0972 108.75ZM39.1527 93.75L36.1805 86.25L34.3212 86.9868L37.2934 94.4868L39.1527 93.75ZM33.2083 78.75L30.2361 71.25L28.3768 71.9868L31.349 79.4868L33.2083 78.75ZM27.2638 63.75L24.2916 56.25L22.4323 56.9868L25.4045 64.4868L27.2638 63.75ZM21.3194 48.75L18.3472 41.25L16.4879 41.9868L19.4601 49.4868L21.3194 48.75ZM15.375 33.7499L12.4027 26.25L10.5434 26.9868L13.5156 34.4868L15.375 33.7499ZM9.43052 18.75L6.45829 11.25L4.59898 11.9868L7.5712 19.4868L9.43052 18.75ZM3.48607 3.74995L1.99998 -4.47993e-06L0.140658 0.736837L1.62675 4.4868L3.48607 3.74995Z" fill="#DF9F71"/>
</svg>
