<svg width="172" height="337" viewBox="0 0 172 337" fill="none" xmlns="http://www.w3.org/2000/svg">
<path d="M163.726 10.327C166.362 11.6411 169.564 10.5693 170.878 7.93319C172.192 5.29704 171.12 2.09475 168.484 0.780657C165.848 -0.533432 162.646 0.538306 161.332 3.17446C160.018 5.81061 161.089 9.0129 163.726 10.327ZM1.99995 337L3.79343 333.402L2.00349 332.51L0.210013 336.108L1.99995 337ZM7.38038 326.206L10.9673 319.011L9.1774 318.119L5.59045 325.314L7.38038 326.206ZM14.5543 311.815L18.1413 304.62L16.3513 303.727L12.7644 310.923L14.5543 311.815ZM21.7282 297.424L25.3152 290.228L23.5252 289.336L19.9383 296.532L21.7282 297.424ZM28.9021 283.033L32.4891 275.837L30.6991 274.945L27.1122 282.14L28.9021 283.033ZM36.076 268.641L39.663 261.446L37.8731 260.553L34.2861 267.749L36.076 268.641ZM43.2499 254.25L46.8369 247.054L45.047 246.162L41.46 253.358L43.2499 254.25ZM50.4239 239.859L54.0108 232.663L52.2209 231.771L48.6339 238.966L50.4239 239.859ZM57.5978 225.467L61.1847 218.272L59.3948 217.379L55.8078 224.575L57.5978 225.467ZM64.7717 211.076L68.3586 203.88L66.5687 202.988L62.9818 210.184L64.7717 211.076ZM71.9456 196.685L75.5326 189.489L73.7426 188.597L70.1557 195.792L71.9456 196.685ZM79.1195 182.293L82.7065 175.098L80.9165 174.205L77.3296 181.401L79.1195 182.293ZM86.2934 167.902L89.8804 160.706L88.0905 159.814L84.5035 167.01L86.2934 167.902ZM93.4673 153.511L97.0543 146.315L95.2644 145.423L91.6774 152.619L93.4673 153.511ZM100.641 139.119L104.228 131.924L102.438 131.032L98.8513 138.227L100.641 139.119ZM107.815 124.728L111.402 117.533L109.612 116.64L106.025 123.836L107.815 124.728ZM114.989 110.337L118.576 103.141L116.786 102.249L113.199 109.445L114.989 110.337ZM122.163 95.9456L125.75 88.7499L123.96 87.8576L120.373 95.0533L122.163 95.9456ZM129.337 81.5543L132.924 74.3586L131.134 73.4663L127.547 80.662L129.337 81.5543ZM136.511 67.1629L140.098 59.9673L138.308 59.075L134.721 66.2707L136.511 67.1629ZM143.685 52.7716L147.272 45.576L145.482 44.6837L141.895 51.8794L143.685 52.7716ZM150.859 38.3803L154.446 31.1847L152.656 30.2924L149.069 37.4881L150.859 38.3803ZM158.033 23.989L161.62 16.7934L159.83 15.9011L156.243 23.0968L158.033 23.989ZM165.206 9.59772L167 5.99996L165.21 5.10769L163.417 8.70545L165.206 9.59772Z" fill="#DF9F71"/>
</svg>
