<svg width="54" height="54" viewBox="0 0 54 54" fill="none" xmlns="http://www.w3.org/2000/svg">
<rect width="54" height="54" rx="27" fill="#F8ECDE"/>
<path d="M26.527 33.3096L26.526 33.3085L21.7543 28.5252L21.7538 28.5247C20.7155 27.4869 20.0082 26.1645 19.7215 24.7247C19.4349 23.285 19.5816 21.7925 20.1432 20.4362C20.7048 19.0798 21.6561 17.9205 22.8767 17.1048C24.0972 16.2891 25.5323 15.8537 27.0003 15.8537C28.4684 15.8537 29.9034 16.2891 31.124 17.1048C32.3446 17.9205 33.2958 19.0798 33.8574 20.4362C34.419 21.7925 34.5658 23.285 34.2791 24.7247C33.9924 26.1645 33.2852 27.4869 32.2469 28.5247L32.2463 28.5252L27.4747 33.3085L27.4737 33.3096C27.4117 33.3721 27.3379 33.4217 27.2567 33.4555C27.1755 33.4893 27.0883 33.5068 27.0003 33.5068C26.9123 33.5068 26.8252 33.4893 26.7439 33.4555C26.6627 33.4217 26.589 33.3721 26.527 33.3096ZM23.6459 18.1704L23.6459 18.1704L23.644 18.1716C22.8855 18.6745 22.2489 19.3405 21.7807 20.1209C21.3127 20.9009 21.0247 21.7755 20.9377 22.681C20.8472 23.5776 20.9577 24.4832 21.2611 25.3318C21.5645 26.1805 22.0533 26.951 22.6919 27.5871C22.6921 27.5872 22.6923 27.5874 22.6925 27.5876L26.6468 31.5419L27.0003 31.8954L27.3539 31.5419L31.3089 27.5869L31.3101 27.5857C31.9477 26.9438 32.4351 26.1686 32.7373 25.3158C33.0396 24.463 33.1491 23.5539 33.058 22.6537C32.9669 21.7536 32.6774 20.8848 32.2104 20.1099C31.7435 19.335 31.1106 18.6731 30.3573 18.172L30.3573 18.172L30.3548 18.1704C29.3583 17.5161 28.1923 17.1676 27.0003 17.1676C25.8083 17.1676 24.6423 17.5161 23.6459 18.1704ZM18.8337 36.3333C18.5242 36.3333 18.2275 36.4563 18.0087 36.675L35.992 38.325C36.2107 38.1062 36.3337 37.8094 36.3337 37.5C36.3337 37.1906 36.2107 36.8938 35.992 36.675C35.7732 36.4563 35.4764 36.3333 35.167 36.3333H18.8337ZM28.0189 24.791C27.7174 24.9925 27.3629 25.1 27.0003 25.1C26.5141 25.1 26.0478 24.9069 25.704 24.563C25.3601 24.2192 25.167 23.7529 25.167 23.2667C25.167 22.9041 25.2745 22.5496 25.476 22.2481C25.6774 21.9466 25.9637 21.7117 26.2987 21.5729C26.6337 21.4341 27.0024 21.3978 27.358 21.4686C27.7136 21.5393 28.0403 21.7139 28.2967 21.9703C28.5531 22.2267 28.7277 22.5534 28.7984 22.909C28.8692 23.2646 28.8329 23.6333 28.6941 23.9683C28.5553 24.3033 28.3204 24.5896 28.0189 24.791ZM18.3623 37.0286C18.4873 36.9036 18.6568 36.8333 18.8337 36.8333H35.167C35.3438 36.8333 35.5134 36.9036 35.6384 37.0286C35.7634 37.1536 35.8337 37.3232 35.8337 37.5C35.8337 37.6768 35.7634 37.8464 35.6384 37.9714C35.5134 38.0964 35.3438 38.1667 35.167 38.1667H18.8337C18.6568 38.1667 18.4873 38.0964 18.3623 37.9714C18.2372 37.8464 18.167 37.6768 18.167 37.5C18.167 37.3232 18.2372 37.1536 18.3623 37.0286L18.0101 36.6764L18.3623 37.0286Z" fill="#DF9F71" stroke="#DF9F71"/>
</svg>
