<svg width="56" height="56" viewBox="0 0 56 56" fill="none" xmlns="http://www.w3.org/2000/svg">
<rect x="-1.25" y="1.25" width="53.5" height="53.5" rx="10.75" transform="matrix(-1 0 0 1 53.5 0)" fill="#F5D7BB"/>
<path d="M27.916 26.6667V27.9167H26.666H18.666C18.6439 27.9167 18.6227 27.9254 18.6071 27.9411C18.5915 27.9567 18.5827 27.9779 18.5827 28C18.5827 28.0221 18.5915 28.0433 18.6071 28.0589C18.6227 28.0745 18.6439 28.0833 18.666 28.0833H26.666H27.916V29.3333V37.3333C27.916 37.3554 27.9248 37.3766 27.9404 37.3923C27.9561 37.4079 27.9772 37.4167 27.9993 37.4167C28.0215 37.4167 28.0426 37.4079 28.0583 37.3923C28.0739 37.3766 28.0827 37.3554 28.0827 37.3333V29.3333V28.0833H29.3327H37.3327C37.3548 28.0833 37.376 28.0745 37.3916 28.0589C37.4072 28.0433 37.416 28.0221 37.416 28C37.416 27.9779 37.4072 27.9567 37.3916 27.9411C37.376 27.9254 37.3548 27.9167 37.3327 27.9167H29.3327H28.0827V26.6667V18.6667C28.0827 18.6446 28.0739 18.6234 28.0583 18.6077C28.0426 18.5921 28.0215 18.5833 27.9993 18.5833C27.9772 18.5833 27.9561 18.5921 27.9404 18.6077C27.9248 18.6234 27.916 18.6446 27.916 18.6667V26.6667Z" fill="black" stroke="#DF9F71" stroke-width="2.5"/>
<rect x="-1.25" y="1.25" width="53.5" height="53.5" rx="10.75" transform="matrix(-1 0 0 1 53.5 0)" stroke="#F5D7BB" stroke-width="2.5"/>
</svg>
