<svg width="185" height="185" viewBox="0 0 185 185" fill="none" xmlns="http://www.w3.org/2000/svg">
<g clip-path="url(#clip0_1047_2129)">
<rect width="185" height="185" rx="92.5" fill="#73BD76"/>
<path d="M148.917 52.0833C148.142 51.3023 147.221 50.6823 146.205 50.2592C145.19 49.8362 144.101 49.6183 143 49.6183C141.9 49.6183 140.811 49.8362 139.796 50.2592C138.78 50.6823 137.858 51.3023 137.084 52.0833L75.0004 114.25L48.9171 88.0833C48.1127 87.3063 47.1632 86.6954 46.1227 86.2854C45.0823 85.8753 43.9713 85.6742 42.8531 85.6936C41.7349 85.7129 40.6315 85.9523 39.6058 86.3981C38.5802 86.8439 37.6524 87.4873 36.8754 88.2917C36.0984 89.096 35.4875 90.0455 35.0774 91.086C34.6674 92.1264 34.4663 93.2375 34.4856 94.3556C34.505 95.4738 34.7444 96.5772 35.1902 97.6029C35.636 98.6285 36.2794 99.5563 37.0837 100.333L69.0837 132.333C69.8584 133.114 70.7801 133.734 71.7956 134.157C72.8111 134.58 73.9003 134.798 75.0004 134.798C76.1005 134.798 77.1897 134.58 78.2052 134.157C79.2207 133.734 80.1424 133.114 80.9171 132.333L148.917 64.3333C149.763 63.553 150.438 62.6059 150.9 61.5517C151.361 60.4976 151.6 59.3592 151.6 58.2083C151.6 57.0575 151.361 55.9191 150.9 54.8649C150.438 53.8108 149.763 52.8637 148.917 52.0833Z" fill="white"/>
</g>
<defs>
<clipPath id="clip0_1047_2129">
<rect width="185" height="185" rx="92.5" fill="white"/>
</clipPath>
</defs>
</svg>
