<svg width="24" height="24" viewBox="0 0 24 24" fill="none" xmlns="http://www.w3.org/2000/svg">
<path d="M11.2902 17.7102C11.3831 17.8039 11.4937 17.8783 11.6156 17.9291C11.7375 17.9798 11.8682 18.006 12.0002 18.006C12.1322 18.006 12.2629 17.9798 12.3848 17.9291C12.5066 17.8783 12.6172 17.8039 12.7102 17.7102C12.7985 17.613 12.8695 17.5014 12.9202 17.3802C12.9731 17.2605 13.0004 17.1311 13.0004 17.0002C13.0004 16.8693 12.9731 16.7399 12.9202 16.6202C12.8695 16.499 12.7985 16.3874 12.7102 16.2902C12.6172 16.1965 12.5066 16.1221 12.3848 16.0713C12.2629 16.0205 12.1322 15.9944 12.0002 15.9944C11.8682 15.9944 11.7375 16.0205 11.6156 16.0713C11.4937 16.1221 11.3831 16.1965 11.2902 16.2902C11.2019 16.3874 11.1308 16.499 11.0802 16.6202C11.0273 16.7399 11 16.8693 11 17.0002C11 17.1311 11.0273 17.2605 11.0802 17.3802C11.1308 17.5014 11.2019 17.613 11.2902 17.7102ZM8.66019 4.00019H16.0002C16.2654 4.00019 16.5198 4.10554 16.7073 4.29308C16.8948 4.48062 17.0002 4.73497 17.0002 5.00019V12.3402C17.0002 12.6054 17.1055 12.8598 17.2931 13.0473C17.4806 13.2348 17.735 13.3402 18.0002 13.3402C18.2654 13.3402 18.5198 13.2348 18.7073 13.0473C18.8948 12.8598 19.0002 12.6054 19.0002 12.3402V5.00019C19.0002 4.20454 18.6841 3.44147 18.1215 2.87887C17.5589 2.31626 16.7958 2.00019 16.0002 2.00019H8.66019C8.39497 2.00019 8.14061 2.10554 7.95308 2.29308C7.76554 2.48061 7.66019 2.73497 7.66019 3.00019C7.66019 3.2654 7.76554 3.51976 7.95308 3.70729C8.14061 3.89483 8.39497 4.00019 8.66019 4.00019ZM21.7102 20.2902L3.71019 2.29019C3.52188 2.10188 3.26649 1.99609 3.00019 1.99609C2.73388 1.99609 2.47849 2.10188 2.29019 2.29019C2.10188 2.47849 1.99609 2.73388 1.99609 3.00019C1.99609 3.26649 2.10188 3.52188 2.29019 3.71019L5.00019 6.41019V19.0002C5.00019 19.7958 5.31626 20.5589 5.87887 21.1215C6.44147 21.6841 7.20454 22.0002 8.00019 22.0002H16.0002C16.5891 21.9997 17.1648 21.8259 17.6556 21.5005C18.1464 21.1751 18.5305 20.7124 18.7602 20.1702L20.2902 21.7102C20.3831 21.8039 20.4937 21.8783 20.6156 21.9291C20.7375 21.9798 20.8682 22.006 21.0002 22.006C21.1322 22.006 21.2629 21.9798 21.3848 21.9291C21.5066 21.8783 21.6172 21.8039 21.7102 21.7102C21.8039 21.6172 21.8783 21.5066 21.9291 21.3848C21.9798 21.2629 22.006 21.1322 22.006 21.0002C22.006 20.8682 21.9798 20.7375 21.9291 20.6156C21.8783 20.4937 21.8039 20.3831 21.7102 20.2902ZM17.0002 19.0002C17.0002 19.2654 16.8948 19.5198 16.7073 19.7073C16.5198 19.8948 16.2654 20.0002 16.0002 20.0002H8.00019C7.73497 20.0002 7.48062 19.8948 7.29308 19.7073C7.10554 19.5198 7.00019 19.2654 7.00019 19.0002V8.41019L17.0002 18.4102V19.0002Z" fill="black"/>
</svg>
