<svg width="24" height="24" viewBox="0 0 24 24" fill="none" xmlns="http://www.w3.org/2000/svg">
<path d="M22.6025 10.0039C22.5608 9.7733 22.4395 9.56464 22.2597 9.41435C22.0799 9.26407 21.853 9.18171 21.6186 9.18165H12.2002C12.0689 9.18162 11.9388 9.20746 11.8175 9.2577C11.6962 9.30795 11.5859 9.38161 11.493 9.47447C11.4002 9.56734 11.3265 9.67759 11.2763 9.79893C11.226 9.92027 11.2002 10.0503 11.2002 10.1817V14.0498C11.2002 14.1811 11.226 14.3112 11.2763 14.4325C11.3265 14.5539 11.4002 14.6641 11.493 14.757C11.5859 14.8499 11.6962 14.9235 11.8175 14.9738C11.9388 15.024 12.0689 15.0498 12.2002 15.0498H16.1626C15.8803 15.5264 15.4932 15.9324 15.0308 16.2373C14.1856 16.7731 13.2006 17.0464 12.2002 17.0225C11.1627 17.0106 10.1553 16.672 9.3212 16.0549C8.4871 15.4377 7.86873 14.5734 7.55398 13.5847L7.55369 13.583C7.20342 12.5564 7.20342 11.4426 7.55369 10.416L7.55393 10.4144C7.86891 9.42587 8.48736 8.56176 9.32145 7.9448C10.1555 7.32784 11.1628 6.9894 12.2002 6.97755C12.7766 6.96432 13.35 7.06509 13.8873 7.27407C14.4247 7.48305 14.9155 7.79613 15.3315 8.19532C15.5205 8.37588 15.7726 8.47534 16.0339 8.47242C16.2953 8.4695 16.5451 8.36444 16.73 8.1797L19.5981 5.31153C19.6931 5.21664 19.7681 5.10356 19.8184 4.97905C19.8687 4.85455 19.8935 4.72118 19.8911 4.5869C19.8887 4.45263 19.8593 4.32021 19.8046 4.19756C19.7499 4.07491 19.671 3.96455 19.5727 3.87306C17.5769 2.00177 14.936 0.972625 12.2002 1.00001C10.1602 0.993978 8.15897 1.55803 6.42235 2.62855C4.68572 3.69908 3.28272 5.2335 2.37156 7.05879L2.37009 7.06056C1.59761 8.59232 1.19683 10.2845 1.20022 12C1.20265 13.7149 1.60313 15.4057 2.37014 16.9395L2.37161 16.9412C3.28276 18.7665 4.68576 20.3009 6.42237 21.3715C8.15899 22.442 10.1602 23.006 12.2002 23C14.8856 23.068 17.4953 22.1067 19.4949 20.313L19.4956 20.3125L19.4964 20.3117L19.4966 20.3115L19.4967 20.3114C20.5805 19.2688 21.4343 18.011 22.0032 16.6188C22.5722 15.2266 22.8437 13.7309 22.8003 12.2276C22.8008 11.4819 22.7346 10.7378 22.6025 10.0039ZM12.2002 3.00001C14.0713 2.9818 15.8982 3.56856 17.4087 4.67286L15.955 6.12601C14.8528 5.36307 13.5406 4.96172 12.2002 4.97755C10.9764 4.98385 9.77645 5.31614 8.72375 5.94024C7.67105 6.56433 6.80368 7.45768 6.21091 8.52833L5.1417 7.69959L4.5567 7.24592C5.36147 5.94377 6.48668 4.86972 7.82486 4.12637C9.16303 3.38303 10.6695 2.99523 12.2002 3.00001ZM3.67966 14.9033C3.04034 13.0206 3.04034 10.9794 3.67966 9.09669L5.46189 10.4785C5.23402 11.4797 5.23402 12.5193 5.46189 13.5205L3.67966 14.9033ZM12.2002 21C10.6694 21.0048 9.16298 20.6169 7.8248 19.8736C6.48661 19.1302 5.36139 18.0561 4.55662 16.7539L4.93503 16.4604L6.21091 15.4707C6.80341 16.5417 7.6707 17.4353 8.72344 18.0596C9.77618 18.6839 10.9763 19.0163 12.2002 19.0225C13.3459 19.0359 14.4785 18.7787 15.5059 18.2717L17.1976 19.585C15.7098 20.5436 13.9697 21.0363 12.2002 21ZM18.7261 18.2393L18.5431 18.0973L17.1657 17.028C17.8879 16.2477 18.3734 15.2782 18.5654 14.2325C18.5923 14.0881 18.587 13.9396 18.55 13.7976C18.5129 13.6555 18.4451 13.5233 18.3512 13.4104C18.2573 13.2975 18.1397 13.2067 18.0068 13.1444C17.8739 13.0821 17.7288 13.0498 17.582 13.0499H13.2002V11.1817H20.749C20.7832 11.5274 20.8003 11.877 20.8003 12.2276C20.8588 14.4164 20.1218 16.5522 18.726 18.2393H18.7261Z" fill="black"/>
</svg>
