<svg width="24" height="24" viewBox="0 0 24 24" fill="none" xmlns="http://www.w3.org/2000/svg">
<path d="M8.64645 12.3536C8.55268 12.2598 8.5 12.1326 8.5 12C8.5 11.8674 8.55268 11.7402 8.64645 11.6464C8.74022 11.5527 8.86739 11.5 9 11.5H15C15.1326 11.5 15.2598 11.5527 15.3536 11.6464C15.4473 11.7402 15.5 11.8674 15.5 12C15.5 12.1326 15.4473 12.2598 15.3536 12.3536C15.2598 12.4473 15.1326 12.5 15 12.5H9C8.86739 12.5 8.74022 12.4473 8.64645 12.3536ZM7 15.5H10C10.1326 15.5 10.2598 15.5527 10.3536 15.6464C10.4473 15.7402 10.5 15.8674 10.5 16C10.5 16.1326 10.4473 16.2598 10.3536 16.3536C10.2598 16.4473 10.1326 16.5 10 16.5H7C5.80653 16.5 4.66193 16.0259 3.81802 15.182C2.97411 14.3381 2.5 13.1935 2.5 12C2.5 10.8065 2.97411 9.66193 3.81802 8.81802C4.66193 7.97411 5.80653 7.5 7 7.5H10C10.1326 7.5 10.2598 7.55268 10.3536 7.64645C10.4473 7.74022 10.5 7.86739 10.5 8C10.5 8.13261 10.4473 8.25978 10.3536 8.35355C10.2598 8.44732 10.1326 8.5 10 8.5H7C6.07174 8.5 5.1815 8.86875 4.52513 9.52513C3.86875 10.1815 3.5 11.0717 3.5 12C3.5 12.9283 3.86875 13.8185 4.52513 14.4749C5.1815 15.1313 6.07174 15.5 7 15.5ZM14 7.5H17C18.1935 7.5 19.3381 7.97411 20.182 8.81802C21.0259 9.66193 21.5 10.8065 21.5 12C21.5 13.1935 21.0259 14.3381 20.182 15.182C19.3381 16.0259 18.1935 16.5 17 16.5H14C13.8674 16.5 13.7402 16.4473 13.6464 16.3536C13.5527 16.2598 13.5 16.1326 13.5 16C13.5 15.8674 13.5527 15.7402 13.6464 15.6464C13.7402 15.5527 13.8674 15.5 14 15.5H17C17.9283 15.5 18.8185 15.1313 19.4749 14.4749C20.1313 13.8185 20.5 12.9283 20.5 12C20.5 11.0717 20.1313 10.1815 19.4749 9.52513C18.8185 8.86875 17.9283 8.5 17 8.5H14C13.8674 8.5 13.7402 8.44732 13.6464 8.35355C13.5527 8.25978 13.5 8.13261 13.5 8C13.5 7.86739 13.5527 7.74022 13.6464 7.64645C13.7402 7.55268 13.8674 7.5 14 7.5Z" stroke="#DF9F71"/>
</svg>
