<svg width="65" height="49" viewBox="0 0 65 49" fill="none" xmlns="http://www.w3.org/2000/svg">
<path opacity="0.4" d="M62.0483 8.5674C60.7214 7.73153 59.0906 7.65759 57.7004 8.36487L53.0073 10.7342C51.272 11.6087 50.1953 13.3769 50.1953 15.3444V33.8172C50.1953 35.7847 51.272 37.5496 53.0073 38.4305L57.6972 40.7967C58.3337 41.1246 59.0146 41.2821 59.6954 41.2821C60.5124 41.2821 61.3231 41.0507 62.0483 40.5974C63.3751 39.7647 64.1668 38.3212 64.1668 36.7395V12.4285C64.1668 10.8468 63.3751 9.40328 62.0483 8.5674" fill="#DF9F71"/>
<path d="M32.1992 48.333H13.8576C6.18789 48.333 0.833008 43.0445 0.833008 35.4734V13.6926C0.833008 6.11829 6.18789 0.833008 13.8576 0.833008H32.1992C39.8689 0.833008 45.2238 6.11829 45.2238 13.6926V35.4734C45.2238 43.0445 39.8689 48.333 32.1992 48.333" fill="#DF9F71"/>
</svg>
