<svg width="50" height="50" viewBox="0 0 50 50" fill="none" xmlns="http://www.w3.org/2000/svg">
    <path fill-rule="evenodd" clip-rule="evenodd" d="M25 0C38.807 0 50 11.1929 50 25C50 38.807 38.8072 50 25 50C11.193 50 0 38.8071 0 25C0 11.193 11.1929 0 25 0Z" fill="#FBECDE" />
    <path d="M32.8848 25C31.0479 22.6433 28.2058 21.1182 24.9826 21.1182C21.794 21.1182 18.952 22.6433 17.1151 25V15.3651H15.0356V34.635H17.1151V31.0652C17.1151 26.7329 20.6504 23.1979 24.9825 23.1979C29.3148 23.1979 32.8498 26.7331 32.8498 31.0652V34.635H34.9294V31.0652C34.9641 28.7776 34.1669 26.6636 32.8846 25H34.9641V15.3651H32.8846V25H32.8848Z" fill="#DF9F71" />
</svg>
    
    